<mxfile host="app.diagrams.net" modified="2024-04-23T03:47:58.125Z" agent="Mozilla/5.0 (Windows NT 10.0; Win64; x64) AppleWebKit/537.36 (KHTML, like Gecko) Chrome/124.0.0.0 Safari/537.36" etag="IYk8MgVXIqt7ldyv3SHD" version="24.2.7" type="device">
  <diagram name="Page-1" id="oW6jKuGPmSi100mKtAgO">
    <mxGraphModel dx="2600" dy="1015" grid="1" gridSize="10" guides="1" tooltips="1" connect="1" arrows="1" fold="1" page="1" pageScale="1" pageWidth="850" pageHeight="1100" background="#000000" math="0" shadow="0">
      <root>
        <mxCell id="0" />
        <mxCell id="1" parent="0" />
        <mxCell id="EssWX9nocRp4Raj8Io9w-110" style="edgeStyle=orthogonalEdgeStyle;rounded=0;orthogonalLoop=1;jettySize=auto;html=1;exitX=0.5;exitY=1;exitDx=0;exitDy=0;entryX=0;entryY=0.5;entryDx=0;entryDy=0;strokeColor=#FF0000;strokeWidth=3;" edge="1" parent="1" source="EssWX9nocRp4Raj8Io9w-106" target="EssWX9nocRp4Raj8Io9w-14">
          <mxGeometry relative="1" as="geometry">
            <Array as="points">
              <mxPoint x="11" y="1472" />
              <mxPoint x="160" y="1472" />
              <mxPoint x="160" y="185" />
            </Array>
          </mxGeometry>
        </mxCell>
        <mxCell id="EssWX9nocRp4Raj8Io9w-111" value="&lt;font style=&quot;background-color: rgb(0, 0, 0);&quot; color=&quot;#ffffff&quot;&gt;Choice Number 0&lt;/font&gt;" style="edgeLabel;html=1;align=center;verticalAlign=middle;resizable=0;points=[];" vertex="1" connectable="0" parent="EssWX9nocRp4Raj8Io9w-110">
          <mxGeometry x="-0.8729" y="-3" relative="1" as="geometry">
            <mxPoint x="-17" y="-4" as="offset" />
          </mxGeometry>
        </mxCell>
        <mxCell id="EssWX9nocRp4Raj8Io9w-104" style="edgeStyle=orthogonalEdgeStyle;rounded=0;orthogonalLoop=1;jettySize=auto;html=1;exitX=0;exitY=0.5;exitDx=0;exitDy=0;entryX=0;entryY=0.5;entryDx=0;entryDy=0;strokeColor=#FF0000;strokeWidth=3;" edge="1" parent="1" source="EssWX9nocRp4Raj8Io9w-100" target="EssWX9nocRp4Raj8Io9w-14">
          <mxGeometry relative="1" as="geometry">
            <mxPoint x="190" y="1290" as="targetPoint" />
            <Array as="points">
              <mxPoint x="160" y="1345" />
              <mxPoint x="160" y="185" />
            </Array>
          </mxGeometry>
        </mxCell>
        <mxCell id="EssWX9nocRp4Raj8Io9w-105" value="&lt;font style=&quot;background-color: rgb(0, 0, 0);&quot; color=&quot;#ffffff&quot;&gt;End of Function&lt;/font&gt;" style="edgeLabel;html=1;align=center;verticalAlign=middle;resizable=0;points=[];" vertex="1" connectable="0" parent="EssWX9nocRp4Raj8Io9w-104">
          <mxGeometry x="-0.8701" y="4" relative="1" as="geometry">
            <mxPoint x="14" as="offset" />
          </mxGeometry>
        </mxCell>
        <mxCell id="EssWX9nocRp4Raj8Io9w-97" style="edgeStyle=orthogonalEdgeStyle;rounded=0;orthogonalLoop=1;jettySize=auto;html=1;exitX=0;exitY=0.5;exitDx=0;exitDy=0;entryX=0;entryY=0.5;entryDx=0;entryDy=0;strokeColor=#FF0000;strokeWidth=3;" edge="1" parent="1" source="EssWX9nocRp4Raj8Io9w-87" target="EssWX9nocRp4Raj8Io9w-14">
          <mxGeometry relative="1" as="geometry">
            <Array as="points">
              <mxPoint x="160" y="1071" />
              <mxPoint x="160" y="185" />
            </Array>
          </mxGeometry>
        </mxCell>
        <mxCell id="EssWX9nocRp4Raj8Io9w-98" value="&lt;font style=&quot;background-color: rgb(0, 0, 0);&quot; color=&quot;#ffffff&quot;&gt;Invalid Choice&lt;/font&gt;" style="edgeLabel;html=1;align=center;verticalAlign=middle;resizable=0;points=[];" vertex="1" connectable="0" parent="EssWX9nocRp4Raj8Io9w-97">
          <mxGeometry x="-0.8687" y="-1" relative="1" as="geometry">
            <mxPoint x="9" as="offset" />
          </mxGeometry>
        </mxCell>
        <mxCell id="EssWX9nocRp4Raj8Io9w-7" value="Start" style="html=1;overflow=block;blockSpacing=1;whiteSpace=wrap;fontSize=16.7;fontColor=#ffffff;spacing=3.8;strokeColor=#005700;rounded=1;absoluteArcSize=1;arcSize=120;fillColor=#008a00;strokeWidth=NaN;lucidId=39wL1MRaq2_O;" vertex="1" parent="1">
          <mxGeometry x="368.5" y="40" width="120" height="60" as="geometry" />
        </mxCell>
        <mxCell id="EssWX9nocRp4Raj8Io9w-8" value="Choosing Features" style="html=1;overflow=block;blockSpacing=1;whiteSpace=wrap;rhombus;fontSize=16.7;fontColor=#ffffff;spacing=3.8;strokeColor=#006EAF;rounded=1;absoluteArcSize=1;arcSize=9;fillColor=#1ba1e2;strokeWidth=NaN;lucidId=39wLGG56x5rx;" vertex="1" parent="1">
          <mxGeometry x="313.5" y="260" width="230" height="173" as="geometry" />
        </mxCell>
        <mxCell id="EssWX9nocRp4Raj8Io9w-9" value="Execute Add Journal Function" style="html=1;overflow=block;blockSpacing=1;whiteSpace=wrap;fontSize=17;spacing=3.8;strokeColor=#006EAF;rounded=1;absoluteArcSize=1;arcSize=0;fillColor=#1ba1e2;strokeWidth=NaN;lucidId=39wLa3TWxo6T;fontColor=#ffffff;" vertex="1" parent="1">
          <mxGeometry x="-297" y="518" width="137" height="90" as="geometry" />
        </mxCell>
        <mxCell id="EssWX9nocRp4Raj8Io9w-10" value="" style="html=1;jettySize=18;whiteSpace=wrap;overflow=block;blockSpacing=1;fontSize=13;strokeColor=#FFFFFF;strokeOpacity=100;strokeWidth=3;rounded=1;arcSize=12;edgeStyle=orthogonalEdgeStyle;startArrow=none;endArrow=block;endFill=1;exitX=0.5;exitY=1;entryX=0.5;entryY=-0.004;entryPerimeter=0;lucidId=39wLUXoq_lXd;fillColor=#1ba1e2;exitDx=0;exitDy=0;" edge="1" parent="1" source="EssWX9nocRp4Raj8Io9w-7" target="EssWX9nocRp4Raj8Io9w-14">
          <mxGeometry width="100" height="100" relative="1" as="geometry">
            <Array as="points" />
          </mxGeometry>
        </mxCell>
        <mxCell id="EssWX9nocRp4Raj8Io9w-11" value="" style="html=1;jettySize=18;whiteSpace=wrap;overflow=block;blockSpacing=1;fontSize=13;strokeColor=#FFFFFF;strokeOpacity=100;strokeWidth=3;rounded=1;arcSize=12;edgeStyle=orthogonalEdgeStyle;startArrow=none;endArrow=block;endFill=1;exitX=0.5;exitY=1.004;exitPerimeter=0;entryX=0.5;entryY=0.002;entryPerimeter=0;lucidId=39wLFfeJ~EYN;fillColor=#1ba1e2;" edge="1" parent="1" source="EssWX9nocRp4Raj8Io9w-14" target="EssWX9nocRp4Raj8Io9w-8">
          <mxGeometry width="100" height="100" relative="1" as="geometry">
            <Array as="points" />
          </mxGeometry>
        </mxCell>
        <mxCell id="EssWX9nocRp4Raj8Io9w-12" value="" style="html=1;jettySize=18;whiteSpace=wrap;overflow=block;blockSpacing=1;fontSize=13;strokeColor=#005700;strokeOpacity=100;strokeWidth=3;rounded=1;arcSize=12;edgeStyle=orthogonalEdgeStyle;startArrow=none;endArrow=block;endFill=1;exitX=0.5;exitY=0.998;exitPerimeter=0;entryX=0.5;entryY=-0.004;entryPerimeter=0;lucidId=39wLRLaOBurm;fillColor=#008a00;" edge="1" parent="1" source="EssWX9nocRp4Raj8Io9w-8" target="EssWX9nocRp4Raj8Io9w-9">
          <mxGeometry width="100" height="100" relative="1" as="geometry">
            <Array as="points" />
          </mxGeometry>
        </mxCell>
        <mxCell id="EssWX9nocRp4Raj8Io9w-13" value="Choice Number 1" style="text;html=1;resizable=0;labelBackgroundColor=#000000;align=center;verticalAlign=middle;fontStyle=1;fontColor=#FFFFFF;fontSize=13.3;" vertex="1" parent="EssWX9nocRp4Raj8Io9w-12">
          <mxGeometry x="0.9240520812517814" relative="1" as="geometry">
            <mxPoint y="5" as="offset" />
          </mxGeometry>
        </mxCell>
        <mxCell id="EssWX9nocRp4Raj8Io9w-14" value="Display Travel Journal Menu" style="html=1;overflow=block;blockSpacing=1;whiteSpace=wrap;fontSize=16.7;spacing=9;strokeColor=#006EAF;rounded=1;absoluteArcSize=1;arcSize=9;fillColor=#1ba1e2;strokeWidth=NaN;lucidId=39wLnJ_wp2-h;fontColor=#ffffff;" vertex="1" parent="1">
          <mxGeometry x="362.5" y="140" width="132" height="90" as="geometry" />
        </mxCell>
        <mxCell id="EssWX9nocRp4Raj8Io9w-174" style="edgeStyle=orthogonalEdgeStyle;rounded=0;orthogonalLoop=1;jettySize=auto;html=1;exitX=0.5;exitY=1;exitDx=0;exitDy=0;entryX=0.5;entryY=0;entryDx=0;entryDy=0;strokeColor=#FFFFFF;strokeWidth=3;" edge="1" parent="1" source="EssWX9nocRp4Raj8Io9w-15" target="EssWX9nocRp4Raj8Io9w-73">
          <mxGeometry relative="1" as="geometry" />
        </mxCell>
        <mxCell id="EssWX9nocRp4Raj8Io9w-15" value="&lt;div style=&quot;display: flex; justify-content: center; text-align: center; align-items: baseline; line-height: 1.25; margin-top: -2px;&quot;&gt;&lt;font style=&quot;font-size: 18px;&quot;&gt;Execute Show Journal Function&lt;/font&gt;&lt;/div&gt;" style="html=1;overflow=block;blockSpacing=1;whiteSpace=wrap;fontSize=13;spacing=3.8;strokeColor=#006EAF;rounded=1;absoluteArcSize=1;arcSize=9;fillColor=#1ba1e2;strokeWidth=NaN;lucidId=r1av457.JjQZ;fontColor=#ffffff;" vertex="1" parent="1">
          <mxGeometry x="-62.54" y="518" width="147.36" height="90" as="geometry" />
        </mxCell>
        <mxCell id="EssWX9nocRp4Raj8Io9w-82" style="edgeStyle=orthogonalEdgeStyle;rounded=0;orthogonalLoop=1;jettySize=auto;html=1;exitX=0.5;exitY=1;exitDx=0;exitDy=0;entryX=0.5;entryY=0;entryDx=0;entryDy=0;strokeColor=#FFFFFF;strokeWidth=3;" edge="1" parent="1" source="EssWX9nocRp4Raj8Io9w-16" target="EssWX9nocRp4Raj8Io9w-81">
          <mxGeometry relative="1" as="geometry" />
        </mxCell>
        <mxCell id="EssWX9nocRp4Raj8Io9w-16" value="&lt;div style=&quot;display: flex; justify-content: center; text-align: center; align-items: baseline; line-height: 1.25; margin-top: -2px;&quot;&gt;&lt;font style=&quot;&quot;&gt;&lt;font style=&quot;font-size: 18px;&quot;&gt;Execute Edit Journal Function&lt;/font&gt;&lt;/font&gt;&lt;/div&gt;" style="html=1;overflow=block;blockSpacing=1;whiteSpace=wrap;fontSize=13;spacing=3.8;strokeColor=#006EAF;rounded=1;absoluteArcSize=1;arcSize=9;fillColor=#1ba1e2;strokeWidth=NaN;lucidId=W1avhproO7Pp;fontColor=#ffffff;" vertex="1" parent="1">
          <mxGeometry x="218.75" y="518" width="146.5" height="90" as="geometry" />
        </mxCell>
        <mxCell id="EssWX9nocRp4Raj8Io9w-120" style="edgeStyle=orthogonalEdgeStyle;rounded=0;orthogonalLoop=1;jettySize=auto;html=1;exitX=0.5;exitY=1;exitDx=0;exitDy=0;entryX=0.5;entryY=0;entryDx=0;entryDy=0;strokeWidth=3;strokeColor=#FFFFFF;" edge="1" parent="1" source="EssWX9nocRp4Raj8Io9w-17" target="EssWX9nocRp4Raj8Io9w-114">
          <mxGeometry relative="1" as="geometry" />
        </mxCell>
        <mxCell id="EssWX9nocRp4Raj8Io9w-17" value="&lt;div style=&quot;display: flex; justify-content: center; text-align: center; align-items: baseline; line-height: 1.25; margin-top: -2px;&quot;&gt;&lt;font style=&quot;&quot;&gt;&lt;font style=&quot;font-size: 18px;&quot;&gt;Execute Delete Journal Function&lt;/font&gt;&lt;/font&gt;&lt;/div&gt;" style="html=1;overflow=block;blockSpacing=1;whiteSpace=wrap;fontSize=13;spacing=3.8;strokeColor=#006EAF;rounded=1;absoluteArcSize=1;arcSize=9;fillColor=#1ba1e2;strokeWidth=NaN;lucidId=W1av~T7v6o5Q;fontColor=#ffffff;" vertex="1" parent="1">
          <mxGeometry x="485" y="518" width="147" height="90" as="geometry" />
        </mxCell>
        <mxCell id="EssWX9nocRp4Raj8Io9w-18" value="&lt;div style=&quot;display: flex; justify-content: center; text-align: center; align-items: baseline; line-height: 1.25; margin-top: -2px;&quot;&gt;&lt;font style=&quot;&quot;&gt;&lt;font style=&quot;font-size: 18px;&quot;&gt;Execute Additional Features Function&lt;/font&gt;&lt;/font&gt;&lt;/div&gt;" style="html=1;overflow=block;blockSpacing=1;whiteSpace=wrap;fontSize=13;spacing=3.8;strokeColor=#006EAF;rounded=1;absoluteArcSize=1;arcSize=9;fillColor=#1ba1e2;strokeWidth=NaN;lucidId=51avJGUS.d6e;fontColor=#ffffff;" vertex="1" parent="1">
          <mxGeometry x="700.5" y="518" width="156" height="90" as="geometry" />
        </mxCell>
        <mxCell id="EssWX9nocRp4Raj8Io9w-19" value="" style="html=1;jettySize=18;whiteSpace=wrap;fontSize=13.3;fontColor=#333333;fontStyle=1;strokeColor=#005700;strokeOpacity=100;strokeWidth=3;rounded=1;arcSize=12;edgeStyle=orthogonalEdgeStyle;startArrow=none;endArrow=block;endFill=1;exitX=0.5;exitY=0.998;exitPerimeter=0;entryX=0.5;entryY=-0.004;entryPerimeter=0;lucidId=Q2avhE32~0ku;fillColor=#008a00;" edge="1" parent="1" source="EssWX9nocRp4Raj8Io9w-8" target="EssWX9nocRp4Raj8Io9w-15">
          <mxGeometry width="100" height="100" relative="1" as="geometry">
            <Array as="points" />
          </mxGeometry>
        </mxCell>
        <mxCell id="EssWX9nocRp4Raj8Io9w-20" value="Choice Number 2" style="text;html=1;resizable=0;labelBackgroundColor=#000000;align=center;verticalAlign=middle;fontStyle=1;fontColor=#FFFFFF;fontSize=13.3;" vertex="1" parent="EssWX9nocRp4Raj8Io9w-19">
          <mxGeometry x="0.8852501595275064" relative="1" as="geometry">
            <mxPoint y="6" as="offset" />
          </mxGeometry>
        </mxCell>
        <mxCell id="EssWX9nocRp4Raj8Io9w-21" value="" style="html=1;jettySize=18;whiteSpace=wrap;fontSize=13.3;fontColor=#333333;fontStyle=1;strokeColor=#005700;strokeOpacity=100;strokeWidth=3;rounded=1;arcSize=12;edgeStyle=orthogonalEdgeStyle;startArrow=none;endArrow=block;endFill=1;exitX=0.5;exitY=0.998;exitPerimeter=0;entryX=0.5;entryY=-0.004;entryPerimeter=0;lucidId=E3av-h~LvY7t;fillColor=#008a00;" edge="1" parent="1" source="EssWX9nocRp4Raj8Io9w-8" target="EssWX9nocRp4Raj8Io9w-16">
          <mxGeometry width="100" height="100" relative="1" as="geometry">
            <Array as="points" />
          </mxGeometry>
        </mxCell>
        <mxCell id="EssWX9nocRp4Raj8Io9w-22" value="Choice Number 3" style="text;html=1;resizable=0;labelBackgroundColor=#000000;align=center;verticalAlign=middle;fontStyle=1;fontColor=#FFFFFF;fontSize=13.3;" vertex="1" parent="EssWX9nocRp4Raj8Io9w-21">
          <mxGeometry x="0.7653849066170326" relative="1" as="geometry">
            <mxPoint y="6" as="offset" />
          </mxGeometry>
        </mxCell>
        <mxCell id="EssWX9nocRp4Raj8Io9w-23" value="" style="html=1;jettySize=18;whiteSpace=wrap;fontSize=13.3;fontColor=#333333;fontStyle=1;strokeColor=#005700;strokeOpacity=100;strokeWidth=3;rounded=1;arcSize=12;edgeStyle=orthogonalEdgeStyle;startArrow=none;endArrow=block;endFill=1;exitX=0.5;exitY=0.998;exitPerimeter=0;entryX=0.5;entryY=-0.004;entryPerimeter=0;lucidId=.3av.siftXe3;fillColor=#008a00;" edge="1" parent="1" source="EssWX9nocRp4Raj8Io9w-8" target="EssWX9nocRp4Raj8Io9w-17">
          <mxGeometry width="100" height="100" relative="1" as="geometry">
            <Array as="points" />
          </mxGeometry>
        </mxCell>
        <mxCell id="EssWX9nocRp4Raj8Io9w-24" value="Choice Number 4" style="text;html=1;resizable=0;labelBackgroundColor=#000000;align=center;verticalAlign=middle;fontStyle=1;fontColor=#FFFFFF;fontSize=13.3;" vertex="1" parent="EssWX9nocRp4Raj8Io9w-23">
          <mxGeometry x="0.7653849066170326" relative="1" as="geometry">
            <mxPoint y="6" as="offset" />
          </mxGeometry>
        </mxCell>
        <mxCell id="EssWX9nocRp4Raj8Io9w-25" value="" style="html=1;jettySize=18;whiteSpace=wrap;fontSize=13.3;fontColor=#333333;fontStyle=1;strokeColor=#005700;strokeOpacity=100;strokeWidth=3;rounded=1;arcSize=12;edgeStyle=orthogonalEdgeStyle;startArrow=none;endArrow=block;endFill=1;exitX=0.5;exitY=0.998;exitPerimeter=0;entryX=0.5;entryY=-0.004;entryPerimeter=0;lucidId=h4avc9kdezYn;fillColor=#008a00;" edge="1" parent="1" source="EssWX9nocRp4Raj8Io9w-8" target="EssWX9nocRp4Raj8Io9w-18">
          <mxGeometry width="100" height="100" relative="1" as="geometry">
            <Array as="points" />
          </mxGeometry>
        </mxCell>
        <mxCell id="EssWX9nocRp4Raj8Io9w-26" value="Choice Number 5" style="text;html=1;resizable=0;labelBackgroundColor=#000000;align=center;verticalAlign=middle;fontStyle=1;fontColor=#FFFFFF;fontSize=13.3;" vertex="1" parent="EssWX9nocRp4Raj8Io9w-25">
          <mxGeometry x="0.8852501595275064" relative="1" as="geometry">
            <mxPoint y="6" as="offset" />
          </mxGeometry>
        </mxCell>
        <mxCell id="EssWX9nocRp4Raj8Io9w-176" style="edgeStyle=orthogonalEdgeStyle;rounded=0;orthogonalLoop=1;jettySize=auto;html=1;exitX=1;exitY=0.5;exitDx=0;exitDy=0;entryX=0;entryY=0.5;entryDx=0;entryDy=0;strokeColor=#FFFFFF;strokeWidth=3;" edge="1" parent="1" source="EssWX9nocRp4Raj8Io9w-27" target="EssWX9nocRp4Raj8Io9w-175">
          <mxGeometry relative="1" as="geometry" />
        </mxCell>
        <mxCell id="EssWX9nocRp4Raj8Io9w-27" value="&lt;div style=&quot;display: flex; justify-content: center; text-align: center; align-items: baseline; line-height: 1.25; margin-top: -2px;&quot;&gt;&lt;font style=&quot;font-size: 18px;&quot;&gt;Execute Exit Function&lt;/font&gt;&lt;/div&gt;" style="html=1;overflow=block;blockSpacing=1;whiteSpace=wrap;fontSize=13;spacing=3.8;strokeColor=#006EAF;rounded=1;absoluteArcSize=1;arcSize=9;fillColor=#1ba1e2;strokeWidth=NaN;lucidId=c7avoEP7ivxT;fontColor=#ffffff;" vertex="1" parent="1">
          <mxGeometry x="970" y="518" width="137" height="90" as="geometry" />
        </mxCell>
        <mxCell id="EssWX9nocRp4Raj8Io9w-28" value="" style="html=1;jettySize=18;whiteSpace=wrap;fontSize=13.3;fontColor=#333333;fontStyle=1;strokeColor=#005700;strokeOpacity=100;strokeWidth=3;rounded=1;arcSize=12;edgeStyle=orthogonalEdgeStyle;startArrow=none;endArrow=block;endFill=1;exitX=0.5;exitY=0.998;exitPerimeter=0;entryX=0.5;entryY=-0.004;entryPerimeter=0;lucidId=c7avUJEq6.oB;fillColor=#008a00;" edge="1" parent="1" source="EssWX9nocRp4Raj8Io9w-8" target="EssWX9nocRp4Raj8Io9w-27">
          <mxGeometry width="100" height="100" relative="1" as="geometry">
            <Array as="points" />
          </mxGeometry>
        </mxCell>
        <mxCell id="EssWX9nocRp4Raj8Io9w-29" value="Choice Number 6" style="text;html=1;resizable=0;labelBackgroundColor=#000000;align=center;verticalAlign=middle;fontStyle=1;fontColor=#FFFFFF;fontSize=13.3;" vertex="1" parent="EssWX9nocRp4Raj8Io9w-28">
          <mxGeometry x="0.9240520812517814" relative="1" as="geometry">
            <mxPoint y="6" as="offset" />
          </mxGeometry>
        </mxCell>
        <mxCell id="EssWX9nocRp4Raj8Io9w-30" value="" style="html=1;jettySize=18;whiteSpace=wrap;fontSize=13;strokeColor=#FFFFFF;strokeOpacity=100;strokeWidth=3;rounded=1;arcSize=24;edgeStyle=orthogonalEdgeStyle;startArrow=none;endArrow=block;endFill=1;exitX=0.5;exitY=1.004;exitPerimeter=0;entryX=0.5;entryY=-0.004;entryPerimeter=0;lucidId=M-avfqYe2V_c;fillColor=#1ba1e2;" edge="1" parent="1" source="EssWX9nocRp4Raj8Io9w-18" target="EssWX9nocRp4Raj8Io9w-31">
          <mxGeometry width="100" height="100" relative="1" as="geometry">
            <Array as="points" />
          </mxGeometry>
        </mxCell>
        <mxCell id="EssWX9nocRp4Raj8Io9w-31" value="Display Additional Menu" style="html=1;overflow=block;blockSpacing=1;whiteSpace=wrap;fontSize=16.7;spacing=3.8;strokeColor=#006EAF;rounded=1;absoluteArcSize=1;arcSize=9;fillColor=#1ba1e2;strokeWidth=NaN;lucidId=M-avD~cvcVE-;fontColor=#ffffff;" vertex="1" parent="1">
          <mxGeometry x="710" y="653" width="137" height="90" as="geometry" />
        </mxCell>
        <mxCell id="EssWX9nocRp4Raj8Io9w-33" value="" style="html=1;jettySize=18;whiteSpace=wrap;fontSize=13;strokeColor=#FFFFFF;strokeOpacity=100;strokeWidth=3;rounded=1;arcSize=24;edgeStyle=orthogonalEdgeStyle;startArrow=none;endArrow=block;endFill=1;exitX=0.5;exitY=1.004;exitPerimeter=0;entryX=0.5;entryY=0;lucidId=Z_avLD7_3N8Z;fillColor=#1ba1e2;entryDx=0;entryDy=0;" edge="1" parent="1" source="EssWX9nocRp4Raj8Io9w-31" target="EssWX9nocRp4Raj8Io9w-68">
          <mxGeometry width="100" height="100" relative="1" as="geometry">
            <Array as="points" />
            <mxPoint x="698" y="788.346" as="targetPoint" />
          </mxGeometry>
        </mxCell>
        <mxCell id="EssWX9nocRp4Raj8Io9w-139" style="edgeStyle=orthogonalEdgeStyle;rounded=0;orthogonalLoop=1;jettySize=auto;html=1;exitX=0.5;exitY=1;exitDx=0;exitDy=0;entryX=0.5;entryY=0;entryDx=0;entryDy=0;strokeColor=#FFFFFF;strokeWidth=3;" edge="1" parent="1" source="EssWX9nocRp4Raj8Io9w-34" target="EssWX9nocRp4Raj8Io9w-126">
          <mxGeometry relative="1" as="geometry" />
        </mxCell>
        <mxCell id="EssWX9nocRp4Raj8Io9w-34" value="Execute Search Journal Function" style="html=1;overflow=block;blockSpacing=1;whiteSpace=wrap;fontSize=17;spacing=3.8;strokeColor=#006EAF;rounded=1;absoluteArcSize=1;arcSize=9;fillColor=#1ba1e2;strokeWidth=NaN;lucidId=h.avaaxgTNCP;fontColor=#ffffff;" vertex="1" parent="1">
          <mxGeometry x="260" y="1656" width="137" height="90" as="geometry" />
        </mxCell>
        <mxCell id="EssWX9nocRp4Raj8Io9w-143" style="edgeStyle=orthogonalEdgeStyle;rounded=0;orthogonalLoop=1;jettySize=auto;html=1;exitX=0.5;exitY=1;exitDx=0;exitDy=0;entryX=0.5;entryY=0;entryDx=0;entryDy=0;strokeColor=#FFFFFF;strokeWidth=3;" edge="1" parent="1" source="EssWX9nocRp4Raj8Io9w-35" target="EssWX9nocRp4Raj8Io9w-142">
          <mxGeometry relative="1" as="geometry" />
        </mxCell>
        <mxCell id="EssWX9nocRp4Raj8Io9w-35" value="&lt;div style=&quot;display: flex; justify-content: center; text-align: center; align-items: baseline; line-height: 1.25; margin-top: -2px;&quot;&gt;&lt;font style=&quot;&quot;&gt;&lt;font style=&quot;font-size: 18px;&quot;&gt;Execute Sort Journal Function&lt;/font&gt;&lt;/font&gt;&lt;/div&gt;" style="html=1;overflow=block;blockSpacing=1;whiteSpace=wrap;fontSize=13;spacing=3.8;strokeColor=#006EAF;rounded=1;absoluteArcSize=1;arcSize=9;fillColor=#1ba1e2;strokeWidth=NaN;lucidId=h.avo_qA4~c-;fontColor=#ffffff;" vertex="1" parent="1">
          <mxGeometry x="440" y="1656" width="140" height="90" as="geometry" />
        </mxCell>
        <mxCell id="EssWX9nocRp4Raj8Io9w-151" style="edgeStyle=orthogonalEdgeStyle;rounded=0;orthogonalLoop=1;jettySize=auto;html=1;exitX=0.5;exitY=1;exitDx=0;exitDy=0;entryX=0.5;entryY=0;entryDx=0;entryDy=0;strokeColor=#FFFFFF;strokeWidth=3;" edge="1" parent="1" source="EssWX9nocRp4Raj8Io9w-36" target="EssWX9nocRp4Raj8Io9w-148">
          <mxGeometry relative="1" as="geometry" />
        </mxCell>
        <mxCell id="EssWX9nocRp4Raj8Io9w-36" value="&lt;div style=&quot;display: flex; justify-content: center; text-align: center; align-items: baseline; line-height: 1.25; margin-top: -2px;&quot;&gt;&lt;font style=&quot;font-size: 18px;&quot;&gt;Execute Filter Journal by Year&amp;nbsp;Function&lt;/font&gt;&lt;/div&gt;" style="html=1;overflow=block;blockSpacing=1;whiteSpace=wrap;fontSize=13;spacing=3.8;strokeColor=#006EAF;rounded=1;absoluteArcSize=1;arcSize=9;fillColor=#1ba1e2;strokeWidth=NaN;lucidId=h.avfyT31Oo9;fontColor=#ffffff;" vertex="1" parent="1">
          <mxGeometry x="620" y="1656" width="137" height="90" as="geometry" />
        </mxCell>
        <mxCell id="EssWX9nocRp4Raj8Io9w-162" style="edgeStyle=orthogonalEdgeStyle;rounded=0;orthogonalLoop=1;jettySize=auto;html=1;exitX=0.5;exitY=1;exitDx=0;exitDy=0;entryX=0.5;entryY=0;entryDx=0;entryDy=0;strokeColor=#FFFFFF;strokeWidth=3;" edge="1" parent="1" source="EssWX9nocRp4Raj8Io9w-37" target="EssWX9nocRp4Raj8Io9w-156">
          <mxGeometry relative="1" as="geometry" />
        </mxCell>
        <mxCell id="EssWX9nocRp4Raj8Io9w-37" value="&lt;div style=&quot;display: flex; justify-content: center; text-align: center; align-items: baseline; font-size: 0; line-height: 1.25;margin-top: -2px;&quot;&gt;&lt;span&gt;&lt;span style=&quot;font-size: 18px;&quot;&gt;Execute Filter Journal by Range of Years Function&lt;/span&gt;&lt;br&gt;&lt;/span&gt;&lt;/div&gt;" style="html=1;overflow=block;blockSpacing=1;whiteSpace=wrap;fontSize=13;spacing=3.8;strokeColor=#006EAF;rounded=1;absoluteArcSize=1;arcSize=9;fillColor=#1ba1e2;strokeWidth=NaN;lucidId=h.avTpXANDxv;fontColor=#ffffff;" vertex="1" parent="1">
          <mxGeometry x="800" y="1656" width="137" height="90" as="geometry" />
        </mxCell>
        <mxCell id="EssWX9nocRp4Raj8Io9w-168" style="edgeStyle=orthogonalEdgeStyle;rounded=0;orthogonalLoop=1;jettySize=auto;html=1;exitX=0.5;exitY=1;exitDx=0;exitDy=0;entryX=0.5;entryY=0;entryDx=0;entryDy=0;fontColor=#FFFFFF;strokeColor=#FFFFFF;strokeWidth=3;" edge="1" parent="1" source="EssWX9nocRp4Raj8Io9w-38" target="EssWX9nocRp4Raj8Io9w-166">
          <mxGeometry relative="1" as="geometry" />
        </mxCell>
        <mxCell id="EssWX9nocRp4Raj8Io9w-38" value="&lt;div style=&quot;display: flex; justify-content: center; text-align: center; align-items: baseline; line-height: 1.25; margin-top: -2px;&quot;&gt;&lt;font style=&quot;font-size: 18px;&quot;&gt;Execute Travel Summary Function&lt;/font&gt;&lt;/div&gt;" style="html=1;overflow=block;blockSpacing=1;whiteSpace=wrap;fontSize=13;spacing=3.8;strokeColor=#006EAF;rounded=1;absoluteArcSize=1;arcSize=9;fillColor=#1ba1e2;strokeWidth=NaN;lucidId=h.avwNckP6yK;fontColor=#ffffff;" vertex="1" parent="1">
          <mxGeometry x="980" y="1656" width="137" height="90" as="geometry" />
        </mxCell>
        <mxCell id="EssWX9nocRp4Raj8Io9w-39" value="" style="html=1;jettySize=18;whiteSpace=wrap;fontSize=13.3;fontColor=#333333;fontStyle=1;align=center;strokeColor=#FFFFFF;strokeOpacity=100;strokeWidth=3;rounded=1;arcSize=24;edgeStyle=orthogonalEdgeStyle;startArrow=none;endArrow=block;endFill=1;exitX=0.5;exitY=1;entryX=0.5;entryY=-0.004;entryPerimeter=0;lucidId=p.avOH.mr3om;fillColor=#1ba1e2;exitDx=0;exitDy=0;" edge="1" parent="1" source="EssWX9nocRp4Raj8Io9w-68" target="EssWX9nocRp4Raj8Io9w-34">
          <mxGeometry width="100" height="100" relative="1" as="geometry">
            <Array as="points">
              <mxPoint x="779" y="1600" />
              <mxPoint x="329" y="1600" />
            </Array>
            <mxPoint x="756" y="1166.654" as="sourcePoint" />
          </mxGeometry>
        </mxCell>
        <mxCell id="EssWX9nocRp4Raj8Io9w-40" value="Choice Number 1" style="text;html=1;resizable=0;labelBackgroundColor=#000000;align=center;verticalAlign=middle;fontStyle=1;fontColor=#FFFFFF;fontSize=13.3;" vertex="1" parent="EssWX9nocRp4Raj8Io9w-39">
          <mxGeometry x="0.9285808477202095" relative="1" as="geometry">
            <mxPoint y="2" as="offset" />
          </mxGeometry>
        </mxCell>
        <mxCell id="EssWX9nocRp4Raj8Io9w-41" value="" style="html=1;jettySize=18;whiteSpace=wrap;fontSize=13.3;fontColor=#333333;fontStyle=1;align=center;strokeColor=#FFFFFF;strokeOpacity=100;strokeWidth=3;rounded=1;arcSize=24;edgeStyle=orthogonalEdgeStyle;startArrow=none;endArrow=block;endFill=1;exitX=0.5;exitY=1;entryX=0.5;entryY=-0.004;entryPerimeter=0;lucidId=t.av9rZI38El;fillColor=#1ba1e2;exitDx=0;exitDy=0;" edge="1" parent="1" source="EssWX9nocRp4Raj8Io9w-68" target="EssWX9nocRp4Raj8Io9w-35">
          <mxGeometry width="100" height="100" relative="1" as="geometry">
            <Array as="points">
              <mxPoint x="779" y="1600" />
              <mxPoint x="509" y="1600" />
            </Array>
            <mxPoint x="756" y="1166.654" as="sourcePoint" />
          </mxGeometry>
        </mxCell>
        <mxCell id="EssWX9nocRp4Raj8Io9w-42" value="Choice Number 2" style="text;html=1;resizable=0;labelBackgroundColor=#000000;align=center;verticalAlign=middle;fontStyle=1;fontColor=#FFFFFF;fontSize=13.3;" vertex="1" parent="EssWX9nocRp4Raj8Io9w-41">
          <mxGeometry x="0.8949558580008756" relative="1" as="geometry">
            <mxPoint y="6" as="offset" />
          </mxGeometry>
        </mxCell>
        <mxCell id="EssWX9nocRp4Raj8Io9w-43" value="" style="html=1;jettySize=18;whiteSpace=wrap;fontSize=13.3;fontColor=#333333;fontStyle=1;align=center;strokeColor=#FFFFFF;strokeOpacity=100;strokeWidth=3;rounded=1;arcSize=24;edgeStyle=orthogonalEdgeStyle;startArrow=none;endArrow=block;endFill=1;exitX=0.5;exitY=1;entryX=0.5;entryY=-0.004;entryPerimeter=0;lucidId=w.avEhGNFrqr;fillColor=#1ba1e2;exitDx=0;exitDy=0;" edge="1" parent="1" source="EssWX9nocRp4Raj8Io9w-68" target="EssWX9nocRp4Raj8Io9w-36">
          <mxGeometry width="100" height="100" relative="1" as="geometry">
            <Array as="points">
              <mxPoint x="779" y="1600" />
              <mxPoint x="689" y="1600" />
            </Array>
            <mxPoint x="756" y="1166.654" as="sourcePoint" />
          </mxGeometry>
        </mxCell>
        <mxCell id="EssWX9nocRp4Raj8Io9w-44" value="Choice Number 3" style="text;html=1;resizable=0;labelBackgroundColor=#000000;align=center;verticalAlign=middle;fontStyle=1;fontColor=#FFFFFF;fontSize=13.3;" vertex="1" parent="EssWX9nocRp4Raj8Io9w-43">
          <mxGeometry x="0.801499409906457" relative="1" as="geometry">
            <mxPoint y="16" as="offset" />
          </mxGeometry>
        </mxCell>
        <mxCell id="EssWX9nocRp4Raj8Io9w-45" value="" style="html=1;jettySize=18;whiteSpace=wrap;fontSize=13.3;fontColor=#333333;fontStyle=1;align=center;strokeColor=#FFFFFF;strokeOpacity=100;strokeWidth=3;rounded=1;arcSize=24;edgeStyle=orthogonalEdgeStyle;startArrow=none;endArrow=block;endFill=1;exitX=0.5;exitY=1;entryX=0.5;entryY=-0.004;entryPerimeter=0;lucidId=A.avHlsL_KSj;fillColor=#1ba1e2;exitDx=0;exitDy=0;" edge="1" parent="1" source="EssWX9nocRp4Raj8Io9w-68" target="EssWX9nocRp4Raj8Io9w-37">
          <mxGeometry width="100" height="100" relative="1" as="geometry">
            <Array as="points">
              <mxPoint x="779" y="1600" />
              <mxPoint x="869" y="1600" />
            </Array>
            <mxPoint x="756" y="1166.654" as="sourcePoint" />
          </mxGeometry>
        </mxCell>
        <mxCell id="EssWX9nocRp4Raj8Io9w-46" value="Choice Number 4" style="text;html=1;resizable=0;labelBackgroundColor=#000000;align=center;verticalAlign=middle;fontStyle=1;fontColor=#FFFFFF;fontSize=13.3;" vertex="1" parent="EssWX9nocRp4Raj8Io9w-45">
          <mxGeometry x="0.8014994099909527" relative="1" as="geometry">
            <mxPoint y="15" as="offset" />
          </mxGeometry>
        </mxCell>
        <mxCell id="EssWX9nocRp4Raj8Io9w-47" value="" style="html=1;jettySize=18;whiteSpace=wrap;fontSize=13.3;fontColor=#333333;fontStyle=1;align=center;strokeColor=#FFFFFF;strokeOpacity=100;strokeWidth=3;rounded=1;arcSize=24;edgeStyle=orthogonalEdgeStyle;startArrow=none;endArrow=block;endFill=1;exitX=0.5;exitY=1;entryX=0.5;entryY=-0.004;entryPerimeter=0;lucidId=D.avOJ-rT-f-;fillColor=#1ba1e2;exitDx=0;exitDy=0;" edge="1" parent="1" source="EssWX9nocRp4Raj8Io9w-68" target="EssWX9nocRp4Raj8Io9w-38">
          <mxGeometry width="100" height="100" relative="1" as="geometry">
            <Array as="points">
              <mxPoint x="779" y="1600" />
              <mxPoint x="1049" y="1600" />
            </Array>
            <mxPoint x="756" y="1166.654" as="sourcePoint" />
          </mxGeometry>
        </mxCell>
        <mxCell id="EssWX9nocRp4Raj8Io9w-48" value="Choice Number 5" style="text;html=1;resizable=0;labelBackgroundColor=#000000;align=center;verticalAlign=middle;fontStyle=1;fontColor=#FFFFFF;fontSize=13.3;" vertex="1" parent="EssWX9nocRp4Raj8Io9w-47">
          <mxGeometry x="0.8949558580482002" relative="1" as="geometry">
            <mxPoint y="6" as="offset" />
          </mxGeometry>
        </mxCell>
        <mxCell id="EssWX9nocRp4Raj8Io9w-49" value="&lt;div style=&quot;display: flex; justify-content: center; text-align: center; align-items: baseline; line-height: 1.25; margin-top: -2px;&quot;&gt;&lt;font style=&quot;font-size: 18px;&quot;&gt;Execute Return Function&lt;/font&gt;&lt;/div&gt;" style="html=1;overflow=block;blockSpacing=1;whiteSpace=wrap;fontSize=13;spacing=3.8;strokeColor=#006EAF;rounded=1;absoluteArcSize=1;arcSize=9;fillColor=#1ba1e2;strokeWidth=NaN;lucidId=gbbvlOsscx92;fontColor=#ffffff;" vertex="1" parent="1">
          <mxGeometry x="1160" y="1656" width="137" height="90" as="geometry" />
        </mxCell>
        <mxCell id="EssWX9nocRp4Raj8Io9w-50" value="" style="html=1;jettySize=18;whiteSpace=wrap;fontSize=13.3;fontColor=#333333;fontStyle=1;align=center;strokeColor=#FFFFFF;strokeOpacity=100;strokeWidth=3;rounded=1;arcSize=24;edgeStyle=orthogonalEdgeStyle;startArrow=none;endArrow=block;endFill=1;exitX=0.5;exitY=1;entryX=0.5;entryY=-0.004;entryPerimeter=0;lucidId=rbbvAix_iRR3;fillColor=#1ba1e2;exitDx=0;exitDy=0;" edge="1" parent="1" source="EssWX9nocRp4Raj8Io9w-68" target="EssWX9nocRp4Raj8Io9w-49">
          <mxGeometry width="100" height="100" relative="1" as="geometry">
            <Array as="points">
              <mxPoint x="779" y="1600" />
              <mxPoint x="1229" y="1600" />
            </Array>
            <mxPoint x="756" y="1166.654" as="sourcePoint" />
          </mxGeometry>
        </mxCell>
        <mxCell id="EssWX9nocRp4Raj8Io9w-51" value="Choice Number 6" style="text;html=1;resizable=0;labelBackgroundColor=#000000;align=center;verticalAlign=middle;fontStyle=1;fontColor=#FFFFFF;fontSize=13.3;" vertex="1" parent="EssWX9nocRp4Raj8Io9w-50">
          <mxGeometry x="0.9285808477420856" relative="1" as="geometry">
            <mxPoint y="2" as="offset" />
          </mxGeometry>
        </mxCell>
        <mxCell id="EssWX9nocRp4Raj8Io9w-52" value="" style="html=1;jettySize=18;whiteSpace=wrap;fontSize=13;strokeColor=#FFFFFF;strokeOpacity=100;strokeWidth=3;rounded=1;arcSize=24;edgeStyle=orthogonalEdgeStyle;startArrow=none;endArrow=block;endFill=1;exitX=0.5;exitY=1.004;exitPerimeter=0;entryX=0.5;entryY=-0.004;entryPerimeter=0;lucidId=Qcbvza0nCtEt;fillColor=#1ba1e2;" edge="1" parent="1" source="EssWX9nocRp4Raj8Io9w-9" target="EssWX9nocRp4Raj8Io9w-53">
          <mxGeometry width="100" height="100" relative="1" as="geometry">
            <Array as="points" />
          </mxGeometry>
        </mxCell>
        <mxCell id="EssWX9nocRp4Raj8Io9w-53" value="Enter Journal Title" style="html=1;overflow=block;blockSpacing=1;whiteSpace=wrap;fontSize=17;spacing=3.8;strokeColor=#006EAF;rounded=1;absoluteArcSize=1;arcSize=0;fillColor=#1ba1e2;strokeWidth=NaN;lucidId=QcbvUz2D9Ue8;fontColor=#ffffff;" vertex="1" parent="1">
          <mxGeometry x="-297" y="640" width="137" height="90" as="geometry" />
        </mxCell>
        <mxCell id="EssWX9nocRp4Raj8Io9w-54" value="" style="html=1;jettySize=18;whiteSpace=wrap;fontSize=13;strokeColor=#FFFFFF;strokeOpacity=100;strokeWidth=3;rounded=1;arcSize=24;edgeStyle=orthogonalEdgeStyle;startArrow=none;endArrow=block;endFill=1;exitX=0.5;exitY=1.004;exitPerimeter=0;entryX=0.5;entryY=-0.004;entryPerimeter=0;lucidId=fdbv_l9uNn-B;fillColor=#1ba1e2;" edge="1" parent="1" source="EssWX9nocRp4Raj8Io9w-53" target="EssWX9nocRp4Raj8Io9w-55">
          <mxGeometry width="100" height="100" relative="1" as="geometry">
            <Array as="points" />
          </mxGeometry>
        </mxCell>
        <mxCell id="EssWX9nocRp4Raj8Io9w-55" value="Enter Journal Content" style="html=1;overflow=block;blockSpacing=1;whiteSpace=wrap;fontSize=17;spacing=3.8;strokeColor=#006EAF;rounded=1;absoluteArcSize=1;arcSize=9;fillColor=#1ba1e2;strokeWidth=NaN;lucidId=fdbvG2aM~Ybf;fontColor=#ffffff;" vertex="1" parent="1">
          <mxGeometry x="-297" y="760" width="137" height="90" as="geometry" />
        </mxCell>
        <mxCell id="EssWX9nocRp4Raj8Io9w-56" value="" style="html=1;jettySize=18;whiteSpace=wrap;fontSize=13;strokeColor=#FFFFFF;strokeOpacity=100;strokeWidth=3;rounded=1;arcSize=24;edgeStyle=orthogonalEdgeStyle;startArrow=none;endArrow=block;endFill=1;exitX=0.5;exitY=1.004;exitPerimeter=0;entryX=0.5;entryY=-0.004;entryPerimeter=0;lucidId=xdbvU_ehDNFm;fillColor=#1ba1e2;" edge="1" parent="1" source="EssWX9nocRp4Raj8Io9w-55" target="EssWX9nocRp4Raj8Io9w-57">
          <mxGeometry width="100" height="100" relative="1" as="geometry">
            <Array as="points" />
          </mxGeometry>
        </mxCell>
        <mxCell id="EssWX9nocRp4Raj8Io9w-61" style="edgeStyle=orthogonalEdgeStyle;rounded=0;orthogonalLoop=1;jettySize=auto;html=1;exitX=0.5;exitY=1;exitDx=0;exitDy=0;entryX=0.5;entryY=0;entryDx=0;entryDy=0;strokeColor=#FFFFFF;strokeWidth=3;" edge="1" parent="1" source="EssWX9nocRp4Raj8Io9w-57" target="EssWX9nocRp4Raj8Io9w-180">
          <mxGeometry relative="1" as="geometry">
            <mxPoint x="-228.5" y="1000" as="targetPoint" />
          </mxGeometry>
        </mxCell>
        <mxCell id="EssWX9nocRp4Raj8Io9w-57" value="Enter Journal Date" style="html=1;overflow=block;blockSpacing=1;whiteSpace=wrap;fontSize=17;spacing=3.8;strokeColor=#006EAF;rounded=1;absoluteArcSize=1;arcSize=9;fillColor=#1ba1e2;strokeWidth=NaN;lucidId=xdbvFR-ZrNtJ;fontColor=#ffffff;" vertex="1" parent="1">
          <mxGeometry x="-297" y="880" width="137" height="90" as="geometry" />
        </mxCell>
        <mxCell id="EssWX9nocRp4Raj8Io9w-65" style="edgeStyle=orthogonalEdgeStyle;rounded=0;orthogonalLoop=1;jettySize=auto;html=1;exitX=0.5;exitY=1;exitDx=0;exitDy=0;entryX=0.5;entryY=0;entryDx=0;entryDy=0;strokeColor=#FFFFFF;strokeWidth=3;" edge="1" parent="1" source="EssWX9nocRp4Raj8Io9w-60" target="EssWX9nocRp4Raj8Io9w-64">
          <mxGeometry relative="1" as="geometry" />
        </mxCell>
        <mxCell id="EssWX9nocRp4Raj8Io9w-60" value="Enter Journal Location" style="html=1;overflow=block;blockSpacing=1;whiteSpace=wrap;fontSize=17;spacing=3.8;strokeColor=#006EAF;rounded=1;absoluteArcSize=1;arcSize=9;fillColor=#1ba1e2;strokeWidth=NaN;lucidId=xdbvFR-ZrNtJ;fontColor=#ffffff;" vertex="1" parent="1">
          <mxGeometry x="-297" y="1190" width="137" height="90" as="geometry" />
        </mxCell>
        <mxCell id="EssWX9nocRp4Raj8Io9w-92" style="edgeStyle=orthogonalEdgeStyle;rounded=0;orthogonalLoop=1;jettySize=auto;html=1;" edge="1" parent="1" source="EssWX9nocRp4Raj8Io9w-64" target="EssWX9nocRp4Raj8Io9w-90">
          <mxGeometry relative="1" as="geometry" />
        </mxCell>
        <mxCell id="EssWX9nocRp4Raj8Io9w-95" style="edgeStyle=orthogonalEdgeStyle;rounded=0;orthogonalLoop=1;jettySize=auto;html=1;exitX=0;exitY=0.5;exitDx=0;exitDy=0;entryX=0;entryY=0.5;entryDx=0;entryDy=0;fillColor=#a20025;strokeColor=#FF0000;strokeWidth=3;" edge="1" parent="1" source="EssWX9nocRp4Raj8Io9w-64" target="EssWX9nocRp4Raj8Io9w-14">
          <mxGeometry relative="1" as="geometry">
            <Array as="points">
              <mxPoint x="-430" y="1355" />
              <mxPoint x="-430" y="185" />
            </Array>
          </mxGeometry>
        </mxCell>
        <mxCell id="EssWX9nocRp4Raj8Io9w-99" value="&lt;font style=&quot;background-color: rgb(0, 0, 0);&quot; color=&quot;#ffffff&quot;&gt;End Of Function&lt;/font&gt;" style="edgeLabel;html=1;align=center;verticalAlign=middle;resizable=0;points=[];" vertex="1" connectable="0" parent="EssWX9nocRp4Raj8Io9w-95">
          <mxGeometry x="-0.9155" y="4" relative="1" as="geometry">
            <mxPoint x="4" y="-28" as="offset" />
          </mxGeometry>
        </mxCell>
        <mxCell id="EssWX9nocRp4Raj8Io9w-64" value="New Journal Data Added to Database" style="html=1;overflow=block;blockSpacing=1;whiteSpace=wrap;fontSize=17;spacing=3.8;strokeColor=#006EAF;rounded=1;absoluteArcSize=1;arcSize=9;fillColor=#1ba1e2;strokeWidth=NaN;lucidId=xdbvFR-ZrNtJ;fontColor=#ffffff;" vertex="1" parent="1">
          <mxGeometry x="-297" y="1310" width="137" height="90" as="geometry" />
        </mxCell>
        <mxCell id="EssWX9nocRp4Raj8Io9w-71" style="edgeStyle=orthogonalEdgeStyle;rounded=0;orthogonalLoop=1;jettySize=auto;html=1;exitX=0.5;exitY=1;exitDx=0;exitDy=0;entryX=0.5;entryY=0;entryDx=0;entryDy=0;strokeColor=#005700;strokeWidth=3;fillColor=#008a00;" edge="1" parent="1" source="EssWX9nocRp4Raj8Io9w-74" target="EssWX9nocRp4Raj8Io9w-67">
          <mxGeometry relative="1" as="geometry">
            <mxPoint x="11.139999999999986" y="850.0000000000002" as="sourcePoint" />
          </mxGeometry>
        </mxCell>
        <mxCell id="EssWX9nocRp4Raj8Io9w-70" style="edgeStyle=orthogonalEdgeStyle;rounded=0;orthogonalLoop=1;jettySize=auto;html=1;exitX=0.5;exitY=1;exitDx=0;exitDy=0;entryX=0.5;entryY=0;entryDx=0;entryDy=0;strokeWidth=3;strokeColor=#005700;fillColor=#008a00;" edge="1" parent="1" source="EssWX9nocRp4Raj8Io9w-67" target="EssWX9nocRp4Raj8Io9w-69">
          <mxGeometry relative="1" as="geometry" />
        </mxCell>
        <mxCell id="EssWX9nocRp4Raj8Io9w-112" value="&lt;font style=&quot;background-color: rgb(0, 0, 0);&quot; color=&quot;#ffffff&quot;&gt;Valid Journal Numbers&lt;/font&gt;" style="edgeLabel;html=1;align=center;verticalAlign=middle;resizable=0;points=[];" vertex="1" connectable="0" parent="EssWX9nocRp4Raj8Io9w-70">
          <mxGeometry x="-0.2299" relative="1" as="geometry">
            <mxPoint as="offset" />
          </mxGeometry>
        </mxCell>
        <mxCell id="EssWX9nocRp4Raj8Io9w-79" style="edgeStyle=orthogonalEdgeStyle;rounded=0;orthogonalLoop=1;jettySize=auto;html=1;exitX=0;exitY=0.5;exitDx=0;exitDy=0;entryX=0;entryY=0.5;entryDx=0;entryDy=0;strokeColor=#FF0000;strokeWidth=3;" edge="1" parent="1" source="EssWX9nocRp4Raj8Io9w-67" target="EssWX9nocRp4Raj8Io9w-74">
          <mxGeometry relative="1" as="geometry" />
        </mxCell>
        <mxCell id="EssWX9nocRp4Raj8Io9w-80" value="&lt;span style=&quot;color: rgb(255, 255, 255); background-color: rgb(0, 0, 0);&quot;&gt;Invalid Journal Numbers&lt;/span&gt;" style="edgeLabel;html=1;align=center;verticalAlign=middle;resizable=0;points=[];" vertex="1" connectable="0" parent="EssWX9nocRp4Raj8Io9w-79">
          <mxGeometry x="-0.2474" y="-1" relative="1" as="geometry">
            <mxPoint y="-11" as="offset" />
          </mxGeometry>
        </mxCell>
        <mxCell id="EssWX9nocRp4Raj8Io9w-177" value="" style="edgeStyle=orthogonalEdgeStyle;rounded=0;orthogonalLoop=1;jettySize=auto;html=1;" edge="1" parent="1" source="EssWX9nocRp4Raj8Io9w-67" target="EssWX9nocRp4Raj8Io9w-74">
          <mxGeometry relative="1" as="geometry" />
        </mxCell>
        <mxCell id="EssWX9nocRp4Raj8Io9w-178" value="" style="edgeStyle=orthogonalEdgeStyle;rounded=0;orthogonalLoop=1;jettySize=auto;html=1;" edge="1" parent="1" source="EssWX9nocRp4Raj8Io9w-67" target="EssWX9nocRp4Raj8Io9w-74">
          <mxGeometry relative="1" as="geometry" />
        </mxCell>
        <mxCell id="EssWX9nocRp4Raj8Io9w-67" value="&lt;div&gt;&lt;span style=&quot;font-size: 18px;&quot;&gt;Choosing&amp;nbsp;&lt;/span&gt;&lt;/div&gt;&lt;div&gt;&lt;font style=&quot;font-size: 18px;&quot;&gt;Journal&lt;/font&gt;&lt;/div&gt;" style="html=1;overflow=block;blockSpacing=1;whiteSpace=wrap;rhombus;fontSize=16.7;fontColor=#ffffff;spacing=3.8;strokeColor=#006EAF;rounded=1;absoluteArcSize=1;arcSize=9;fillColor=#1ba1e2;strokeWidth=NaN;lucidId=x_avSaIK2IV_;" vertex="1" parent="1">
          <mxGeometry x="-69.96000000000001" y="986" width="162.2" height="122" as="geometry" />
        </mxCell>
        <mxCell id="EssWX9nocRp4Raj8Io9w-68" value="&lt;div&gt;&lt;span style=&quot;font-size: 18px;&quot;&gt;Choosing&amp;nbsp;&lt;/span&gt;&lt;/div&gt;&lt;div&gt;&lt;font style=&quot;font-size: 18px;&quot;&gt;Features&lt;/font&gt;&lt;/div&gt;" style="html=1;overflow=block;blockSpacing=1;whiteSpace=wrap;rhombus;fontSize=16.7;fontColor=#ffffff;spacing=3.8;strokeColor=#006EAF;rounded=1;absoluteArcSize=1;arcSize=9;fillColor=#1ba1e2;strokeWidth=NaN;lucidId=x_avSaIK2IV_;" vertex="1" parent="1">
          <mxGeometry x="697.4" y="1210" width="162.2" height="122" as="geometry" />
        </mxCell>
        <mxCell id="EssWX9nocRp4Raj8Io9w-108" style="edgeStyle=orthogonalEdgeStyle;rounded=0;orthogonalLoop=1;jettySize=auto;html=1;exitX=0.5;exitY=1;exitDx=0;exitDy=0;entryX=0.5;entryY=0;entryDx=0;entryDy=0;strokeColor=#FFFFFF;strokeWidth=3;" edge="1" parent="1" source="EssWX9nocRp4Raj8Io9w-69" target="EssWX9nocRp4Raj8Io9w-106">
          <mxGeometry relative="1" as="geometry" />
        </mxCell>
        <mxCell id="EssWX9nocRp4Raj8Io9w-69" value="Show Selected Journal Details" style="html=1;overflow=block;blockSpacing=1;whiteSpace=wrap;fontSize=17;spacing=3.8;strokeColor=#006EAF;rounded=1;absoluteArcSize=1;arcSize=9;fillColor=#1ba1e2;strokeWidth=NaN;lucidId=xdbvFR-ZrNtJ;fontColor=#ffffff;" vertex="1" parent="1">
          <mxGeometry x="-57.360000000000014" y="1176" width="137" height="90" as="geometry" />
        </mxCell>
        <mxCell id="EssWX9nocRp4Raj8Io9w-75" style="edgeStyle=orthogonalEdgeStyle;rounded=0;orthogonalLoop=1;jettySize=auto;html=1;exitX=0.5;exitY=1;exitDx=0;exitDy=0;entryX=0.5;entryY=0;entryDx=0;entryDy=0;strokeColor=#FFFFFF;strokeWidth=3;" edge="1" parent="1" source="EssWX9nocRp4Raj8Io9w-73" target="EssWX9nocRp4Raj8Io9w-74">
          <mxGeometry relative="1" as="geometry" />
        </mxCell>
        <mxCell id="EssWX9nocRp4Raj8Io9w-73" value="Show Journal Titles" style="html=1;overflow=block;blockSpacing=1;whiteSpace=wrap;fontSize=17;spacing=3.8;strokeColor=#006EAF;rounded=1;absoluteArcSize=1;arcSize=0;fillColor=#1ba1e2;strokeWidth=NaN;lucidId=QcbvUz2D9Ue8;fontColor=#ffffff;" vertex="1" parent="1">
          <mxGeometry x="-57.360000000000014" y="640" width="137" height="90" as="geometry" />
        </mxCell>
        <mxCell id="EssWX9nocRp4Raj8Io9w-74" value="&lt;font style=&quot;font-size: 14px;&quot;&gt;Deciding Back or&lt;br&gt;View Details&lt;/font&gt;" style="html=1;overflow=block;blockSpacing=1;whiteSpace=wrap;rhombus;fontSize=16.7;fontColor=#ffffff;spacing=3.8;strokeColor=#006EAF;rounded=1;absoluteArcSize=1;arcSize=9;fillColor=#1ba1e2;strokeWidth=NaN;lucidId=x_avSaIK2IV_;" vertex="1" parent="1">
          <mxGeometry x="-69.96000000000001" y="800" width="162.2" height="122" as="geometry" />
        </mxCell>
        <mxCell id="EssWX9nocRp4Raj8Io9w-76" style="edgeStyle=orthogonalEdgeStyle;rounded=0;orthogonalLoop=1;jettySize=auto;html=1;exitX=1;exitY=0.5;exitDx=0;exitDy=0;entryX=0;entryY=0.5;entryDx=0;entryDy=0;strokeColor=#FF0000;strokeWidth=3;" edge="1" parent="1" source="EssWX9nocRp4Raj8Io9w-74" target="EssWX9nocRp4Raj8Io9w-14">
          <mxGeometry relative="1" as="geometry">
            <Array as="points">
              <mxPoint x="160" y="861" />
              <mxPoint x="160" y="185" />
            </Array>
          </mxGeometry>
        </mxCell>
        <mxCell id="EssWX9nocRp4Raj8Io9w-78" value="&lt;font style=&quot;background-color: rgb(0, 0, 0);&quot; color=&quot;#ffffff&quot;&gt;Choice Number 0&lt;/font&gt;" style="edgeLabel;html=1;align=center;verticalAlign=middle;resizable=0;points=[];fontStyle=0" vertex="1" connectable="0" parent="EssWX9nocRp4Raj8Io9w-76">
          <mxGeometry x="-0.7888" y="-1" relative="1" as="geometry">
            <mxPoint x="-11" y="32" as="offset" />
          </mxGeometry>
        </mxCell>
        <mxCell id="EssWX9nocRp4Raj8Io9w-84" style="edgeStyle=orthogonalEdgeStyle;rounded=0;orthogonalLoop=1;jettySize=auto;html=1;exitX=0.5;exitY=1;exitDx=0;exitDy=0;entryX=0.5;entryY=0;entryDx=0;entryDy=0;fillColor=#008a00;strokeColor=#005700;strokeWidth=3;" edge="1" parent="1" source="EssWX9nocRp4Raj8Io9w-81" target="EssWX9nocRp4Raj8Io9w-83">
          <mxGeometry relative="1" as="geometry" />
        </mxCell>
        <mxCell id="EssWX9nocRp4Raj8Io9w-121" value="&lt;span style=&quot;color: rgb(255, 255, 255); background-color: rgb(0, 0, 0);&quot;&gt;Valid Journal Numbers&lt;/span&gt;" style="edgeLabel;html=1;align=center;verticalAlign=middle;resizable=0;points=[];" vertex="1" connectable="0" parent="EssWX9nocRp4Raj8Io9w-84">
          <mxGeometry x="-0.4708" y="1" relative="1" as="geometry">
            <mxPoint x="-1" y="19" as="offset" />
          </mxGeometry>
        </mxCell>
        <mxCell id="EssWX9nocRp4Raj8Io9w-85" style="edgeStyle=orthogonalEdgeStyle;rounded=0;orthogonalLoop=1;jettySize=auto;html=1;exitX=0;exitY=0.5;exitDx=0;exitDy=0;entryX=0;entryY=0.5;entryDx=0;entryDy=0;strokeColor=#FF0000;strokeWidth=3;" edge="1" parent="1" source="EssWX9nocRp4Raj8Io9w-81" target="EssWX9nocRp4Raj8Io9w-14">
          <mxGeometry relative="1" as="geometry">
            <Array as="points">
              <mxPoint x="160" y="739" />
              <mxPoint x="160" y="185" />
            </Array>
          </mxGeometry>
        </mxCell>
        <mxCell id="EssWX9nocRp4Raj8Io9w-86" value="&lt;font style=&quot;background-color: rgb(0, 0, 0);&quot; color=&quot;#ffffff&quot;&gt;Invalid Journal Numbers&lt;/font&gt;" style="edgeLabel;html=1;align=center;verticalAlign=middle;resizable=0;points=[];" vertex="1" connectable="0" parent="EssWX9nocRp4Raj8Io9w-85">
          <mxGeometry x="-0.9446" y="-1" relative="1" as="geometry">
            <mxPoint x="-29" y="-18" as="offset" />
          </mxGeometry>
        </mxCell>
        <mxCell id="EssWX9nocRp4Raj8Io9w-81" value="&lt;font style=&quot;font-size: 18px;&quot;&gt;Choosing&amp;nbsp;&lt;/font&gt;&lt;div&gt;&lt;font style=&quot;font-size: 18px;&quot;&gt;Journal&lt;/font&gt;&lt;/div&gt;" style="html=1;overflow=block;blockSpacing=1;whiteSpace=wrap;rhombus;fontSize=16.7;fontColor=#ffffff;spacing=3.8;strokeColor=#006EAF;rounded=1;absoluteArcSize=1;arcSize=9;fillColor=#1ba1e2;strokeWidth=NaN;lucidId=x_avSaIK2IV_;" vertex="1" parent="1">
          <mxGeometry x="210.89999999999998" y="678" width="162.2" height="122" as="geometry" />
        </mxCell>
        <mxCell id="EssWX9nocRp4Raj8Io9w-88" style="edgeStyle=orthogonalEdgeStyle;rounded=0;orthogonalLoop=1;jettySize=auto;html=1;exitX=0.5;exitY=1;exitDx=0;exitDy=0;entryX=0.5;entryY=0;entryDx=0;entryDy=0;strokeColor=#FFFFFF;strokeWidth=3;" edge="1" parent="1" source="EssWX9nocRp4Raj8Io9w-83" target="EssWX9nocRp4Raj8Io9w-87">
          <mxGeometry relative="1" as="geometry" />
        </mxCell>
        <mxCell id="EssWX9nocRp4Raj8Io9w-83" value="Display Edit Menu" style="html=1;overflow=block;blockSpacing=1;whiteSpace=wrap;fontSize=17;spacing=3.8;strokeColor=#006EAF;rounded=1;absoluteArcSize=1;arcSize=9;fillColor=#1ba1e2;strokeWidth=NaN;lucidId=xdbvFR-ZrNtJ;fontColor=#ffffff;" vertex="1" parent="1">
          <mxGeometry x="223.5" y="880" width="137" height="90" as="geometry" />
        </mxCell>
        <mxCell id="EssWX9nocRp4Raj8Io9w-96" style="edgeStyle=orthogonalEdgeStyle;rounded=0;orthogonalLoop=1;jettySize=auto;html=1;exitX=0.5;exitY=1;exitDx=0;exitDy=0;entryX=0.5;entryY=0;entryDx=0;entryDy=0;fillColor=#008a00;strokeColor=#005700;strokeWidth=3;" edge="1" parent="1" source="EssWX9nocRp4Raj8Io9w-87" target="EssWX9nocRp4Raj8Io9w-89">
          <mxGeometry relative="1" as="geometry" />
        </mxCell>
        <mxCell id="EssWX9nocRp4Raj8Io9w-87" value="&lt;font style=&quot;font-size: 18px;&quot;&gt;Choosing&amp;nbsp;&lt;/font&gt;&lt;div&gt;&lt;font style=&quot;font-size: 18px;&quot;&gt;Edit Menu&lt;/font&gt;&lt;/div&gt;" style="html=1;overflow=block;blockSpacing=1;whiteSpace=wrap;rhombus;fontSize=16.7;fontColor=#ffffff;spacing=3.8;strokeColor=#006EAF;rounded=1;absoluteArcSize=1;arcSize=9;fillColor=#1ba1e2;strokeWidth=NaN;lucidId=x_avSaIK2IV_;" vertex="1" parent="1">
          <mxGeometry x="210.89999999999998" y="1010" width="162.2" height="122" as="geometry" />
        </mxCell>
        <mxCell id="EssWX9nocRp4Raj8Io9w-101" style="edgeStyle=orthogonalEdgeStyle;rounded=0;orthogonalLoop=1;jettySize=auto;html=1;exitX=0.5;exitY=1;exitDx=0;exitDy=0;entryX=0.5;entryY=0;entryDx=0;entryDy=0;strokeColor=#FFFFFF;strokeWidth=3;" edge="1" parent="1" source="EssWX9nocRp4Raj8Io9w-89" target="EssWX9nocRp4Raj8Io9w-100">
          <mxGeometry relative="1" as="geometry" />
        </mxCell>
        <mxCell id="EssWX9nocRp4Raj8Io9w-89" value="Edit Selected Option on Journal" style="html=1;overflow=block;blockSpacing=1;whiteSpace=wrap;fontSize=17;spacing=3.8;strokeColor=#006EAF;rounded=1;absoluteArcSize=1;arcSize=9;fillColor=#1ba1e2;strokeWidth=NaN;lucidId=xdbvFR-ZrNtJ;fontColor=#ffffff;" vertex="1" parent="1">
          <mxGeometry x="223.5" y="1176" width="137" height="90" as="geometry" />
        </mxCell>
        <mxCell id="EssWX9nocRp4Raj8Io9w-90" value="Journal&lt;div&gt;Data&lt;/div&gt;" style="strokeWidth=2;html=1;shape=mxgraph.flowchart.database;whiteSpace=wrap;" vertex="1" parent="1">
          <mxGeometry x="-274" y="1430" width="91" height="100" as="geometry" />
        </mxCell>
        <mxCell id="EssWX9nocRp4Raj8Io9w-94" style="edgeStyle=orthogonalEdgeStyle;rounded=0;orthogonalLoop=1;jettySize=auto;html=1;exitX=0.5;exitY=1;exitDx=0;exitDy=0;entryX=0.5;entryY=0;entryDx=0;entryDy=0;entryPerimeter=0;strokeColor=#FFFFFF;strokeWidth=3;" edge="1" parent="1" source="EssWX9nocRp4Raj8Io9w-64" target="EssWX9nocRp4Raj8Io9w-90">
          <mxGeometry relative="1" as="geometry" />
        </mxCell>
        <mxCell id="EssWX9nocRp4Raj8Io9w-100" value="Save Edited Journal Data to Database" style="html=1;overflow=block;blockSpacing=1;whiteSpace=wrap;fontSize=17;spacing=3.8;strokeColor=#006EAF;rounded=1;absoluteArcSize=1;arcSize=9;fillColor=#1ba1e2;strokeWidth=NaN;lucidId=xdbvFR-ZrNtJ;fontColor=#ffffff;" vertex="1" parent="1">
          <mxGeometry x="223.5" y="1300" width="137" height="90" as="geometry" />
        </mxCell>
        <mxCell id="EssWX9nocRp4Raj8Io9w-102" value="Journal&lt;div&gt;Data&lt;/div&gt;" style="strokeWidth=2;html=1;shape=mxgraph.flowchart.database;whiteSpace=wrap;" vertex="1" parent="1">
          <mxGeometry x="246.5" y="1430" width="91" height="100" as="geometry" />
        </mxCell>
        <mxCell id="EssWX9nocRp4Raj8Io9w-103" style="edgeStyle=orthogonalEdgeStyle;rounded=0;orthogonalLoop=1;jettySize=auto;html=1;exitX=0.5;exitY=1;exitDx=0;exitDy=0;entryX=0.5;entryY=0;entryDx=0;entryDy=0;entryPerimeter=0;strokeColor=#FFFFFF;strokeWidth=3;" edge="1" parent="1" source="EssWX9nocRp4Raj8Io9w-100" target="EssWX9nocRp4Raj8Io9w-102">
          <mxGeometry relative="1" as="geometry">
            <mxPoint x="190" y="1420" as="sourcePoint" />
            <mxPoint x="190" y="1450" as="targetPoint" />
          </mxGeometry>
        </mxCell>
        <mxCell id="EssWX9nocRp4Raj8Io9w-109" style="edgeStyle=orthogonalEdgeStyle;rounded=0;orthogonalLoop=1;jettySize=auto;html=1;exitX=1;exitY=0.5;exitDx=0;exitDy=0;entryX=1;entryY=0.5;entryDx=0;entryDy=0;fillColor=#008a00;strokeColor=#005700;strokeWidth=3;" edge="1" parent="1" source="EssWX9nocRp4Raj8Io9w-106" target="EssWX9nocRp4Raj8Io9w-67">
          <mxGeometry relative="1" as="geometry">
            <Array as="points">
              <mxPoint x="120" y="1391" />
              <mxPoint x="120" y="1047" />
            </Array>
          </mxGeometry>
        </mxCell>
        <mxCell id="EssWX9nocRp4Raj8Io9w-113" value="&lt;span style=&quot;color: rgb(255, 255, 255); background-color: rgb(0, 0, 0);&quot;&gt;Choice Number 1&lt;/span&gt;" style="edgeLabel;html=1;align=center;verticalAlign=middle;resizable=0;points=[];" vertex="1" connectable="0" parent="EssWX9nocRp4Raj8Io9w-109">
          <mxGeometry x="-0.1716" y="-2" relative="1" as="geometry">
            <mxPoint x="-12" y="-93" as="offset" />
          </mxGeometry>
        </mxCell>
        <mxCell id="EssWX9nocRp4Raj8Io9w-106" value="&lt;font style=&quot;font-size: 13px;&quot;&gt;Determining&lt;/font&gt;&lt;div&gt;&lt;font style=&quot;font-size: 13px;&quot;&gt;Back or See&lt;/font&gt;&lt;/div&gt;&lt;div&gt;&lt;font style=&quot;font-size: 13px;&quot;&gt;Journal Details&lt;/font&gt;&lt;/div&gt;" style="html=1;overflow=block;blockSpacing=1;whiteSpace=wrap;rhombus;fontSize=16.7;fontColor=#ffffff;spacing=3.8;strokeColor=#006EAF;rounded=1;absoluteArcSize=1;arcSize=9;fillColor=#1ba1e2;strokeWidth=NaN;lucidId=x_avSaIK2IV_;" vertex="1" parent="1">
          <mxGeometry x="-69.96000000000001" y="1330" width="162.2" height="122" as="geometry" />
        </mxCell>
        <mxCell id="EssWX9nocRp4Raj8Io9w-118" style="edgeStyle=orthogonalEdgeStyle;rounded=0;orthogonalLoop=1;jettySize=auto;html=1;exitX=0.5;exitY=1;exitDx=0;exitDy=0;entryX=0.5;entryY=0;entryDx=0;entryDy=0;fillColor=#008a00;strokeColor=#005700;strokeWidth=3;" edge="1" parent="1" source="EssWX9nocRp4Raj8Io9w-114" target="EssWX9nocRp4Raj8Io9w-115">
          <mxGeometry relative="1" as="geometry" />
        </mxCell>
        <mxCell id="EssWX9nocRp4Raj8Io9w-122" value="&lt;span style=&quot;color: rgb(255, 255, 255); background-color: rgb(0, 0, 0);&quot;&gt;Valid Journal Numbers&lt;/span&gt;" style="edgeLabel;html=1;align=center;verticalAlign=middle;resizable=0;points=[];" vertex="1" connectable="0" parent="EssWX9nocRp4Raj8Io9w-118">
          <mxGeometry x="-0.2" relative="1" as="geometry">
            <mxPoint as="offset" />
          </mxGeometry>
        </mxCell>
        <mxCell id="EssWX9nocRp4Raj8Io9w-119" style="edgeStyle=orthogonalEdgeStyle;rounded=0;orthogonalLoop=1;jettySize=auto;html=1;exitX=1;exitY=0.5;exitDx=0;exitDy=0;entryX=1;entryY=0.5;entryDx=0;entryDy=0;strokeColor=#FF0000;strokeWidth=3;" edge="1" parent="1" source="EssWX9nocRp4Raj8Io9w-114" target="EssWX9nocRp4Raj8Io9w-14">
          <mxGeometry relative="1" as="geometry" />
        </mxCell>
        <mxCell id="EssWX9nocRp4Raj8Io9w-114" value="&lt;font style=&quot;font-size: 18px;&quot;&gt;Choosing&amp;nbsp;&lt;/font&gt;&lt;div&gt;&lt;font style=&quot;font-size: 18px;&quot;&gt;Journal&lt;/font&gt;&lt;/div&gt;" style="html=1;overflow=block;blockSpacing=1;whiteSpace=wrap;rhombus;fontSize=16.7;fontColor=#ffffff;spacing=3.8;strokeColor=#006EAF;rounded=1;absoluteArcSize=1;arcSize=9;fillColor=#1ba1e2;strokeWidth=NaN;lucidId=x_avSaIK2IV_;" vertex="1" parent="1">
          <mxGeometry x="477.4" y="678" width="162.2" height="122" as="geometry" />
        </mxCell>
        <mxCell id="EssWX9nocRp4Raj8Io9w-123" style="edgeStyle=orthogonalEdgeStyle;rounded=0;orthogonalLoop=1;jettySize=auto;html=1;exitX=1;exitY=0.5;exitDx=0;exitDy=0;entryX=1;entryY=0.5;entryDx=0;entryDy=0;strokeColor=#FF0000;strokeWidth=3;" edge="1" parent="1" source="EssWX9nocRp4Raj8Io9w-115" target="EssWX9nocRp4Raj8Io9w-14">
          <mxGeometry relative="1" as="geometry">
            <mxPoint x="630" y="-70" as="targetPoint" />
            <Array as="points">
              <mxPoint x="660" y="925" />
              <mxPoint x="660" y="185" />
            </Array>
          </mxGeometry>
        </mxCell>
        <mxCell id="EssWX9nocRp4Raj8Io9w-124" value="&lt;span style=&quot;color: rgb(255, 255, 255); background-color: rgb(0, 0, 0);&quot;&gt;End of Function&lt;/span&gt;" style="edgeLabel;html=1;align=center;verticalAlign=middle;resizable=0;points=[];" vertex="1" connectable="0" parent="EssWX9nocRp4Raj8Io9w-123">
          <mxGeometry x="-0.8121" y="-1" relative="1" as="geometry">
            <mxPoint as="offset" />
          </mxGeometry>
        </mxCell>
        <mxCell id="EssWX9nocRp4Raj8Io9w-125" value="&lt;span style=&quot;color: rgb(255, 255, 255); background-color: rgb(0, 0, 0);&quot;&gt;Invalid Journal Numbers&lt;/span&gt;" style="edgeLabel;html=1;align=center;verticalAlign=middle;resizable=0;points=[];" vertex="1" connectable="0" parent="EssWX9nocRp4Raj8Io9w-123">
          <mxGeometry x="-0.4034" y="1" relative="1" as="geometry">
            <mxPoint x="-9" y="-38" as="offset" />
          </mxGeometry>
        </mxCell>
        <mxCell id="EssWX9nocRp4Raj8Io9w-115" value="Selected Journal&lt;div&gt;Deleted from Database&lt;/div&gt;" style="html=1;overflow=block;blockSpacing=1;whiteSpace=wrap;fontSize=17;spacing=3.8;strokeColor=#006EAF;rounded=1;absoluteArcSize=1;arcSize=9;fillColor=#1ba1e2;strokeWidth=NaN;lucidId=xdbvFR-ZrNtJ;fontColor=#ffffff;" vertex="1" parent="1">
          <mxGeometry x="490" y="880" width="137" height="90" as="geometry" />
        </mxCell>
        <mxCell id="EssWX9nocRp4Raj8Io9w-116" value="Journal&lt;div&gt;Data&lt;/div&gt;" style="strokeWidth=2;html=1;shape=mxgraph.flowchart.database;whiteSpace=wrap;" vertex="1" parent="1">
          <mxGeometry x="513" y="1021" width="91" height="100" as="geometry" />
        </mxCell>
        <mxCell id="EssWX9nocRp4Raj8Io9w-117" style="edgeStyle=orthogonalEdgeStyle;rounded=0;orthogonalLoop=1;jettySize=auto;html=1;exitX=0.5;exitY=1;exitDx=0;exitDy=0;entryX=0.5;entryY=0;entryDx=0;entryDy=0;entryPerimeter=0;strokeColor=#FFFFFF;strokeWidth=3;" edge="1" parent="1" source="EssWX9nocRp4Raj8Io9w-115" target="EssWX9nocRp4Raj8Io9w-116">
          <mxGeometry relative="1" as="geometry" />
        </mxCell>
        <mxCell id="EssWX9nocRp4Raj8Io9w-140" style="edgeStyle=orthogonalEdgeStyle;rounded=0;orthogonalLoop=1;jettySize=auto;html=1;exitX=0.5;exitY=1;exitDx=0;exitDy=0;entryX=0.5;entryY=0;entryDx=0;entryDy=0;strokeColor=#FFFFFF;strokeWidth=3;" edge="1" parent="1" source="EssWX9nocRp4Raj8Io9w-126" target="EssWX9nocRp4Raj8Io9w-127">
          <mxGeometry relative="1" as="geometry" />
        </mxCell>
        <mxCell id="EssWX9nocRp4Raj8Io9w-126" value="Input Journal Keyword" style="html=1;overflow=block;blockSpacing=1;whiteSpace=wrap;fontSize=17;spacing=3.8;strokeColor=#006EAF;rounded=1;absoluteArcSize=1;arcSize=9;fillColor=#1ba1e2;strokeWidth=NaN;lucidId=h.avaaxgTNCP;fontColor=#ffffff;" vertex="1" parent="1">
          <mxGeometry x="260" y="1790" width="137" height="90" as="geometry" />
        </mxCell>
        <mxCell id="EssWX9nocRp4Raj8Io9w-141" style="edgeStyle=orthogonalEdgeStyle;rounded=0;orthogonalLoop=1;jettySize=auto;html=1;exitX=0.5;exitY=1;exitDx=0;exitDy=0;entryX=0.5;entryY=0;entryDx=0;entryDy=0;strokeColor=#FFFFFF;strokeWidth=3;" edge="1" parent="1" source="EssWX9nocRp4Raj8Io9w-127" target="EssWX9nocRp4Raj8Io9w-128">
          <mxGeometry relative="1" as="geometry" />
        </mxCell>
        <mxCell id="EssWX9nocRp4Raj8Io9w-127" value="Search Keyword Through all Journal" style="html=1;overflow=block;blockSpacing=1;whiteSpace=wrap;fontSize=17;spacing=3.8;strokeColor=#006EAF;rounded=1;absoluteArcSize=1;arcSize=9;fillColor=#1ba1e2;strokeWidth=NaN;lucidId=h.avaaxgTNCP;fontColor=#ffffff;" vertex="1" parent="1">
          <mxGeometry x="260" y="1920" width="137" height="90" as="geometry" />
        </mxCell>
        <mxCell id="EssWX9nocRp4Raj8Io9w-131" style="edgeStyle=orthogonalEdgeStyle;rounded=0;orthogonalLoop=1;jettySize=auto;html=1;exitX=0.5;exitY=1;exitDx=0;exitDy=0;entryX=0.5;entryY=0;entryDx=0;entryDy=0;strokeColor=#FFFFFF;strokeWidth=3;" edge="1" parent="1" source="EssWX9nocRp4Raj8Io9w-128" target="EssWX9nocRp4Raj8Io9w-130">
          <mxGeometry relative="1" as="geometry" />
        </mxCell>
        <mxCell id="EssWX9nocRp4Raj8Io9w-128" value="Display all Journal has been Found" style="html=1;overflow=block;blockSpacing=1;whiteSpace=wrap;fontSize=17;spacing=3.8;strokeColor=#006EAF;rounded=1;absoluteArcSize=1;arcSize=9;fillColor=#1ba1e2;strokeWidth=NaN;lucidId=h.avaaxgTNCP;fontColor=#ffffff;" vertex="1" parent="1">
          <mxGeometry x="260" y="2050" width="137" height="90" as="geometry" />
        </mxCell>
        <mxCell id="EssWX9nocRp4Raj8Io9w-137" style="edgeStyle=orthogonalEdgeStyle;rounded=0;orthogonalLoop=1;jettySize=auto;html=1;exitX=1;exitY=0.5;exitDx=0;exitDy=0;entryX=0;entryY=0.5;entryDx=0;entryDy=0;strokeColor=#FF0000;strokeWidth=3;" edge="1" parent="1" source="EssWX9nocRp4Raj8Io9w-129" target="EssWX9nocRp4Raj8Io9w-68">
          <mxGeometry relative="1" as="geometry">
            <Array as="points">
              <mxPoint x="420" y="2435" />
              <mxPoint x="420" y="1271" />
            </Array>
          </mxGeometry>
        </mxCell>
        <mxCell id="EssWX9nocRp4Raj8Io9w-138" value="&lt;font style=&quot;background-color: rgb(0, 0, 0);&quot; color=&quot;#ffffff&quot;&gt;End of Function&lt;/font&gt;" style="edgeLabel;html=1;align=center;verticalAlign=middle;resizable=0;points=[];" vertex="1" connectable="0" parent="EssWX9nocRp4Raj8Io9w-137">
          <mxGeometry x="-0.8995" y="-1" relative="1" as="geometry">
            <mxPoint x="4" y="-14" as="offset" />
          </mxGeometry>
        </mxCell>
        <mxCell id="EssWX9nocRp4Raj8Io9w-129" value="Display Selected Journal Details" style="html=1;overflow=block;blockSpacing=1;whiteSpace=wrap;fontSize=17;spacing=3.8;strokeColor=#006EAF;rounded=1;absoluteArcSize=1;arcSize=9;fillColor=#1ba1e2;strokeWidth=NaN;lucidId=h.avaaxgTNCP;fontColor=#ffffff;" vertex="1" parent="1">
          <mxGeometry x="260" y="2390" width="137" height="90" as="geometry" />
        </mxCell>
        <mxCell id="EssWX9nocRp4Raj8Io9w-132" style="edgeStyle=orthogonalEdgeStyle;rounded=0;orthogonalLoop=1;jettySize=auto;html=1;exitX=0.5;exitY=1;exitDx=0;exitDy=0;entryX=0.5;entryY=0;entryDx=0;entryDy=0;fillColor=#008a00;strokeColor=#005700;strokeWidth=3;" edge="1" parent="1" source="EssWX9nocRp4Raj8Io9w-130" target="EssWX9nocRp4Raj8Io9w-129">
          <mxGeometry relative="1" as="geometry" />
        </mxCell>
        <mxCell id="EssWX9nocRp4Raj8Io9w-136" value="&lt;font style=&quot;background-color: rgb(0, 0, 0);&quot; color=&quot;#ffffff&quot;&gt;Valid Journal Number&lt;/font&gt;" style="edgeLabel;html=1;align=center;verticalAlign=middle;resizable=0;points=[];" vertex="1" connectable="0" parent="EssWX9nocRp4Raj8Io9w-132">
          <mxGeometry x="-0.1723" y="-3" relative="1" as="geometry">
            <mxPoint x="3" y="-4" as="offset" />
          </mxGeometry>
        </mxCell>
        <mxCell id="EssWX9nocRp4Raj8Io9w-134" style="edgeStyle=orthogonalEdgeStyle;rounded=0;orthogonalLoop=1;jettySize=auto;html=1;exitX=1;exitY=0.5;exitDx=0;exitDy=0;entryX=0;entryY=0.5;entryDx=0;entryDy=0;strokeColor=#FF0000;strokeWidth=3;" edge="1" parent="1" source="EssWX9nocRp4Raj8Io9w-130" target="EssWX9nocRp4Raj8Io9w-68">
          <mxGeometry relative="1" as="geometry">
            <Array as="points">
              <mxPoint x="420" y="2261" />
              <mxPoint x="420" y="1271" />
            </Array>
          </mxGeometry>
        </mxCell>
        <mxCell id="EssWX9nocRp4Raj8Io9w-135" value="&lt;font color=&quot;#ffffff&quot;&gt;Invalid Number&lt;/font&gt;&lt;div&gt;&lt;font color=&quot;#ffffff&quot;&gt;or&lt;/font&gt;&lt;/div&gt;&lt;div&gt;&lt;font color=&quot;#ffffff&quot;&gt;Choice Number 0&lt;/font&gt;&lt;/div&gt;" style="edgeLabel;html=1;align=center;verticalAlign=middle;resizable=0;points=[];labelBackgroundColor=#000000;" vertex="1" connectable="0" parent="EssWX9nocRp4Raj8Io9w-134">
          <mxGeometry x="-0.8548" y="2" relative="1" as="geometry">
            <mxPoint as="offset" />
          </mxGeometry>
        </mxCell>
        <mxCell id="EssWX9nocRp4Raj8Io9w-130" value="&lt;font style=&quot;font-size: 18px;&quot;&gt;Determining&lt;/font&gt;&lt;div&gt;&lt;font style=&quot;font-size: 18px;&quot;&gt;Journal&lt;/font&gt;&lt;/div&gt;" style="html=1;overflow=block;blockSpacing=1;whiteSpace=wrap;rhombus;fontSize=16.7;fontColor=#ffffff;spacing=3.8;strokeColor=#006EAF;rounded=1;absoluteArcSize=1;arcSize=9;fillColor=#1ba1e2;strokeWidth=NaN;lucidId=x_avSaIK2IV_;" vertex="1" parent="1">
          <mxGeometry x="247.39999999999998" y="2200" width="162.2" height="122" as="geometry" />
        </mxCell>
        <mxCell id="EssWX9nocRp4Raj8Io9w-145" style="edgeStyle=orthogonalEdgeStyle;rounded=0;orthogonalLoop=1;jettySize=auto;html=1;exitX=0.5;exitY=1;exitDx=0;exitDy=0;entryX=0.5;entryY=0;entryDx=0;entryDy=0;strokeColor=#FFFFFF;strokeWidth=3;" edge="1" parent="1" source="EssWX9nocRp4Raj8Io9w-142" target="EssWX9nocRp4Raj8Io9w-144">
          <mxGeometry relative="1" as="geometry" />
        </mxCell>
        <mxCell id="EssWX9nocRp4Raj8Io9w-142" value="&lt;div style=&quot;display: flex; justify-content: center; text-align: center; align-items: baseline; line-height: 1.25; margin-top: -2px;&quot;&gt;&lt;font style=&quot;&quot;&gt;&lt;font style=&quot;font-size: 18px;&quot;&gt;Journal Sorted based on Date&lt;/font&gt;&lt;/font&gt;&lt;/div&gt;" style="html=1;overflow=block;blockSpacing=1;whiteSpace=wrap;fontSize=13;spacing=3.8;strokeColor=#006EAF;rounded=1;absoluteArcSize=1;arcSize=9;fillColor=#1ba1e2;strokeWidth=NaN;lucidId=h.avo_qA4~c-;fontColor=#ffffff;" vertex="1" parent="1">
          <mxGeometry x="440" y="1790" width="140" height="90" as="geometry" />
        </mxCell>
        <mxCell id="EssWX9nocRp4Raj8Io9w-146" style="edgeStyle=orthogonalEdgeStyle;rounded=0;orthogonalLoop=1;jettySize=auto;html=1;exitX=1;exitY=0.5;exitDx=0;exitDy=0;entryX=0;entryY=0.5;entryDx=0;entryDy=0;strokeColor=#FF0000;strokeWidth=3;" edge="1" parent="1" source="EssWX9nocRp4Raj8Io9w-144" target="EssWX9nocRp4Raj8Io9w-68">
          <mxGeometry relative="1" as="geometry">
            <Array as="points">
              <mxPoint x="600" y="1965" />
              <mxPoint x="600" y="1271" />
            </Array>
          </mxGeometry>
        </mxCell>
        <mxCell id="EssWX9nocRp4Raj8Io9w-147" value="&lt;font style=&quot;background-color: rgb(0, 0, 0);&quot; color=&quot;#ffffff&quot;&gt;End of Function&lt;/font&gt;" style="edgeLabel;html=1;align=center;verticalAlign=middle;resizable=0;points=[];" vertex="1" connectable="0" parent="EssWX9nocRp4Raj8Io9w-146">
          <mxGeometry x="-0.7856" y="2" relative="1" as="geometry">
            <mxPoint as="offset" />
          </mxGeometry>
        </mxCell>
        <mxCell id="EssWX9nocRp4Raj8Io9w-144" value="&lt;div style=&quot;display: flex; justify-content: center; text-align: center; align-items: baseline; line-height: 1.25; margin-top: -2px;&quot;&gt;&lt;font style=&quot;&quot;&gt;&lt;font style=&quot;font-size: 18px;&quot;&gt;Display Sorted Journal List&lt;/font&gt;&lt;/font&gt;&lt;/div&gt;" style="html=1;overflow=block;blockSpacing=1;whiteSpace=wrap;fontSize=13;spacing=3.8;strokeColor=#006EAF;rounded=1;absoluteArcSize=1;arcSize=9;fillColor=#1ba1e2;strokeWidth=NaN;lucidId=h.avo_qA4~c-;fontColor=#ffffff;" vertex="1" parent="1">
          <mxGeometry x="440" y="1920" width="140" height="90" as="geometry" />
        </mxCell>
        <mxCell id="EssWX9nocRp4Raj8Io9w-152" style="edgeStyle=orthogonalEdgeStyle;rounded=0;orthogonalLoop=1;jettySize=auto;html=1;exitX=0.5;exitY=1;exitDx=0;exitDy=0;entryX=0.5;entryY=0;entryDx=0;entryDy=0;strokeColor=#FFFFFF;strokeWidth=3;" edge="1" parent="1" source="EssWX9nocRp4Raj8Io9w-148" target="EssWX9nocRp4Raj8Io9w-149">
          <mxGeometry relative="1" as="geometry" />
        </mxCell>
        <mxCell id="EssWX9nocRp4Raj8Io9w-148" value="&lt;div style=&quot;display: flex; justify-content: center; text-align: center; align-items: baseline; line-height: 1.25; margin-top: -2px;&quot;&gt;&lt;font style=&quot;font-size: 18px;&quot;&gt;&lt;span style=&quot;font-size: 17px;&quot;&gt;Input Journal Year&lt;/span&gt;&lt;br&gt;&lt;/font&gt;&lt;/div&gt;" style="html=1;overflow=block;blockSpacing=1;whiteSpace=wrap;fontSize=13;spacing=3.8;strokeColor=#006EAF;rounded=1;absoluteArcSize=1;arcSize=9;fillColor=#1ba1e2;strokeWidth=NaN;lucidId=h.avfyT31Oo9;fontColor=#ffffff;" vertex="1" parent="1">
          <mxGeometry x="620" y="1790" width="137" height="90" as="geometry" />
        </mxCell>
        <mxCell id="EssWX9nocRp4Raj8Io9w-153" style="edgeStyle=orthogonalEdgeStyle;rounded=0;orthogonalLoop=1;jettySize=auto;html=1;exitX=0.5;exitY=1;exitDx=0;exitDy=0;entryX=0.5;entryY=0;entryDx=0;entryDy=0;strokeColor=#FFFFFF;strokeWidth=3;" edge="1" parent="1" source="EssWX9nocRp4Raj8Io9w-149" target="EssWX9nocRp4Raj8Io9w-150">
          <mxGeometry relative="1" as="geometry" />
        </mxCell>
        <mxCell id="EssWX9nocRp4Raj8Io9w-149" value="&lt;div style=&quot;display: flex; justify-content: center; text-align: center; align-items: baseline; line-height: 1.25; margin-top: -2px;&quot;&gt;&lt;font style=&quot;font-size: 18px;&quot;&gt;&lt;span style=&quot;font-size: 17px;&quot;&gt;Search Year Through all Journal&lt;/span&gt;&lt;br&gt;&lt;/font&gt;&lt;/div&gt;" style="html=1;overflow=block;blockSpacing=1;whiteSpace=wrap;fontSize=13;spacing=3.8;strokeColor=#006EAF;rounded=1;absoluteArcSize=1;arcSize=9;fillColor=#1ba1e2;strokeWidth=NaN;lucidId=h.avfyT31Oo9;fontColor=#ffffff;" vertex="1" parent="1">
          <mxGeometry x="620" y="1920" width="137" height="90" as="geometry" />
        </mxCell>
        <mxCell id="EssWX9nocRp4Raj8Io9w-154" style="edgeStyle=orthogonalEdgeStyle;rounded=0;orthogonalLoop=1;jettySize=auto;html=1;exitX=0.5;exitY=1;exitDx=0;exitDy=0;entryX=1;entryY=0.5;entryDx=0;entryDy=0;strokeColor=#FF0000;strokeWidth=3;" edge="1" parent="1" source="EssWX9nocRp4Raj8Io9w-150" target="EssWX9nocRp4Raj8Io9w-68">
          <mxGeometry relative="1" as="geometry">
            <Array as="points">
              <mxPoint x="689" y="2350" />
              <mxPoint x="960" y="2350" />
              <mxPoint x="960" y="1271" />
            </Array>
          </mxGeometry>
        </mxCell>
        <mxCell id="EssWX9nocRp4Raj8Io9w-155" value="&lt;font style=&quot;background-color: rgb(0, 0, 0);&quot; color=&quot;#ffffff&quot;&gt;End of Function&lt;/font&gt;" style="edgeLabel;html=1;align=center;verticalAlign=middle;resizable=0;points=[];" vertex="1" connectable="0" parent="EssWX9nocRp4Raj8Io9w-154">
          <mxGeometry x="-0.8386" relative="1" as="geometry">
            <mxPoint y="-104" as="offset" />
          </mxGeometry>
        </mxCell>
        <mxCell id="EssWX9nocRp4Raj8Io9w-150" value="Display all Journal has been Found" style="html=1;overflow=block;blockSpacing=1;whiteSpace=wrap;fontSize=17;spacing=3.8;strokeColor=#006EAF;rounded=1;absoluteArcSize=1;arcSize=9;fillColor=#1ba1e2;strokeWidth=NaN;lucidId=h.avaaxgTNCP;fontColor=#ffffff;" vertex="1" parent="1">
          <mxGeometry x="620" y="2050" width="137" height="90" as="geometry" />
        </mxCell>
        <mxCell id="EssWX9nocRp4Raj8Io9w-163" style="edgeStyle=orthogonalEdgeStyle;rounded=0;orthogonalLoop=1;jettySize=auto;html=1;exitX=0.5;exitY=1;exitDx=0;exitDy=0;entryX=0.5;entryY=0;entryDx=0;entryDy=0;strokeColor=#FFFFFF;strokeWidth=3;" edge="1" parent="1" source="EssWX9nocRp4Raj8Io9w-156" target="EssWX9nocRp4Raj8Io9w-157">
          <mxGeometry relative="1" as="geometry" />
        </mxCell>
        <mxCell id="EssWX9nocRp4Raj8Io9w-156" value="&lt;div style=&quot;display: flex; justify-content: center; text-align: center; align-items: baseline; line-height: 1.25; margin-top: -2px;&quot;&gt;&lt;font style=&quot;font-size: 18px;&quot;&gt;&lt;span style=&quot;font-size: 17px;&quot;&gt;Input Journal Start Years&lt;/span&gt;&lt;br&gt;&lt;/font&gt;&lt;/div&gt;" style="html=1;overflow=block;blockSpacing=1;whiteSpace=wrap;fontSize=13;spacing=3.8;strokeColor=#006EAF;rounded=1;absoluteArcSize=1;arcSize=9;fillColor=#1ba1e2;strokeWidth=NaN;lucidId=h.avfyT31Oo9;fontColor=#ffffff;" vertex="1" parent="1">
          <mxGeometry x="800" y="1790" width="137" height="90" as="geometry" />
        </mxCell>
        <mxCell id="EssWX9nocRp4Raj8Io9w-164" style="edgeStyle=orthogonalEdgeStyle;rounded=0;orthogonalLoop=1;jettySize=auto;html=1;exitX=0.5;exitY=1;exitDx=0;exitDy=0;entryX=0.5;entryY=0;entryDx=0;entryDy=0;strokeColor=#FFFFFF;strokeWidth=3;" edge="1" parent="1" source="EssWX9nocRp4Raj8Io9w-157" target="EssWX9nocRp4Raj8Io9w-158">
          <mxGeometry relative="1" as="geometry" />
        </mxCell>
        <mxCell id="EssWX9nocRp4Raj8Io9w-157" value="&lt;div style=&quot;display: flex; justify-content: center; text-align: center; align-items: baseline; line-height: 1.25; margin-top: -2px;&quot;&gt;&lt;font style=&quot;font-size: 18px;&quot;&gt;&lt;span style=&quot;font-size: 17px;&quot;&gt;Input Journal End Years&lt;/span&gt;&lt;br&gt;&lt;/font&gt;&lt;/div&gt;" style="html=1;overflow=block;blockSpacing=1;whiteSpace=wrap;fontSize=13;spacing=3.8;strokeColor=#006EAF;rounded=1;absoluteArcSize=1;arcSize=9;fillColor=#1ba1e2;strokeWidth=NaN;lucidId=h.avfyT31Oo9;fontColor=#ffffff;" vertex="1" parent="1">
          <mxGeometry x="800" y="1920" width="137" height="90" as="geometry" />
        </mxCell>
        <mxCell id="EssWX9nocRp4Raj8Io9w-165" style="edgeStyle=orthogonalEdgeStyle;rounded=0;orthogonalLoop=1;jettySize=auto;html=1;exitX=0.5;exitY=1;exitDx=0;exitDy=0;entryX=0.5;entryY=0;entryDx=0;entryDy=0;strokeColor=#FFFFFF;strokeWidth=3;" edge="1" parent="1" source="EssWX9nocRp4Raj8Io9w-158" target="EssWX9nocRp4Raj8Io9w-159">
          <mxGeometry relative="1" as="geometry" />
        </mxCell>
        <mxCell id="EssWX9nocRp4Raj8Io9w-158" value="&lt;div style=&quot;display: flex; justify-content: center; text-align: center; align-items: baseline; line-height: 1.25; margin-top: -2px;&quot;&gt;&lt;font style=&quot;font-size: 18px;&quot;&gt;&lt;span style=&quot;font-size: 17px;&quot;&gt;Search Year Range Through all Journal&lt;/span&gt;&lt;br&gt;&lt;/font&gt;&lt;/div&gt;" style="html=1;overflow=block;blockSpacing=1;whiteSpace=wrap;fontSize=13;spacing=3.8;strokeColor=#006EAF;rounded=1;absoluteArcSize=1;arcSize=9;fillColor=#1ba1e2;strokeWidth=NaN;lucidId=h.avfyT31Oo9;fontColor=#ffffff;" vertex="1" parent="1">
          <mxGeometry x="800" y="2050" width="137" height="90" as="geometry" />
        </mxCell>
        <mxCell id="EssWX9nocRp4Raj8Io9w-160" style="edgeStyle=orthogonalEdgeStyle;rounded=0;orthogonalLoop=1;jettySize=auto;html=1;exitX=1;exitY=0.5;exitDx=0;exitDy=0;entryX=1;entryY=0.5;entryDx=0;entryDy=0;strokeColor=#FF0000;strokeWidth=3;" edge="1" parent="1" source="EssWX9nocRp4Raj8Io9w-159" target="EssWX9nocRp4Raj8Io9w-68">
          <mxGeometry relative="1" as="geometry">
            <mxPoint x="870" y="1304" as="targetPoint" />
            <Array as="points">
              <mxPoint x="960" y="2225" />
              <mxPoint x="960" y="1271" />
            </Array>
          </mxGeometry>
        </mxCell>
        <mxCell id="EssWX9nocRp4Raj8Io9w-161" value="&lt;span style=&quot;color: rgb(255, 255, 255); background-color: rgb(0, 0, 0);&quot;&gt;End of Function&lt;/span&gt;" style="edgeLabel;html=1;align=center;verticalAlign=middle;resizable=0;points=[];" vertex="1" connectable="0" parent="EssWX9nocRp4Raj8Io9w-160">
          <mxGeometry x="-0.8222" y="1" relative="1" as="geometry">
            <mxPoint as="offset" />
          </mxGeometry>
        </mxCell>
        <mxCell id="EssWX9nocRp4Raj8Io9w-159" value="Display all Journal has been Found" style="html=1;overflow=block;blockSpacing=1;whiteSpace=wrap;fontSize=17;spacing=3.8;strokeColor=#006EAF;rounded=1;absoluteArcSize=1;arcSize=9;fillColor=#1ba1e2;strokeWidth=NaN;lucidId=h.avaaxgTNCP;fontColor=#ffffff;" vertex="1" parent="1">
          <mxGeometry x="800" y="2180" width="137" height="90" as="geometry" />
        </mxCell>
        <mxCell id="EssWX9nocRp4Raj8Io9w-169" style="edgeStyle=orthogonalEdgeStyle;rounded=0;orthogonalLoop=1;jettySize=auto;html=1;exitX=0;exitY=0.5;exitDx=0;exitDy=0;entryX=1;entryY=0.5;entryDx=0;entryDy=0;strokeColor=#FF0000;strokeWidth=3;" edge="1" parent="1" source="EssWX9nocRp4Raj8Io9w-166" target="EssWX9nocRp4Raj8Io9w-68">
          <mxGeometry relative="1" as="geometry">
            <mxPoint x="860" y="1251.5999755859375" as="targetPoint" />
            <Array as="points">
              <mxPoint x="960" y="1835" />
              <mxPoint x="960" y="1271" />
            </Array>
          </mxGeometry>
        </mxCell>
        <mxCell id="EssWX9nocRp4Raj8Io9w-170" value="&lt;span style=&quot;color: rgb(255, 255, 255); background-color: rgb(0, 0, 0);&quot;&gt;End of Function&lt;/span&gt;" style="edgeLabel;html=1;align=center;verticalAlign=middle;resizable=0;points=[];" vertex="1" connectable="0" parent="EssWX9nocRp4Raj8Io9w-169">
          <mxGeometry x="-0.744" y="-3" relative="1" as="geometry">
            <mxPoint as="offset" />
          </mxGeometry>
        </mxCell>
        <mxCell id="EssWX9nocRp4Raj8Io9w-166" value="Display Travel Summary based all Journal" style="html=1;overflow=block;blockSpacing=1;whiteSpace=wrap;fontSize=17;spacing=3.8;strokeColor=#006EAF;rounded=1;absoluteArcSize=1;arcSize=9;fillColor=#1ba1e2;strokeWidth=NaN;lucidId=h.avaaxgTNCP;fontColor=#ffffff;" vertex="1" parent="1">
          <mxGeometry x="980" y="1790" width="137" height="90" as="geometry" />
        </mxCell>
        <mxCell id="EssWX9nocRp4Raj8Io9w-172" style="edgeStyle=orthogonalEdgeStyle;rounded=0;orthogonalLoop=1;jettySize=auto;html=1;exitX=0;exitY=0.5;exitDx=0;exitDy=0;entryX=1;entryY=0.5;entryDx=0;entryDy=0;strokeColor=#FF0000;strokeWidth=3;" edge="1" parent="1" source="EssWX9nocRp4Raj8Io9w-49" target="EssWX9nocRp4Raj8Io9w-14">
          <mxGeometry relative="1" as="geometry">
            <Array as="points">
              <mxPoint x="1140" y="1701" />
              <mxPoint x="1140" y="720" />
              <mxPoint x="920" y="720" />
              <mxPoint x="920" y="185" />
            </Array>
          </mxGeometry>
        </mxCell>
        <mxCell id="EssWX9nocRp4Raj8Io9w-173" value="&lt;span style=&quot;color: rgb(255, 255, 255); background-color: rgb(0, 0, 0);&quot;&gt;End of Function&lt;/span&gt;" style="edgeLabel;html=1;align=center;verticalAlign=middle;resizable=0;points=[];" vertex="1" connectable="0" parent="EssWX9nocRp4Raj8Io9w-172">
          <mxGeometry x="-0.783" y="2" relative="1" as="geometry">
            <mxPoint x="2" y="86" as="offset" />
          </mxGeometry>
        </mxCell>
        <mxCell id="EssWX9nocRp4Raj8Io9w-175" value="End" style="html=1;overflow=block;blockSpacing=1;whiteSpace=wrap;fontSize=16.7;fontColor=#ffffff;spacing=3.8;strokeColor=none;rounded=1;absoluteArcSize=1;arcSize=120;fillColor=#FF0000;strokeWidth=NaN;lucidId=39wL1MRaq2_O;" vertex="1" parent="1">
          <mxGeometry x="1177" y="533" width="120" height="60" as="geometry" />
        </mxCell>
        <mxCell id="EssWX9nocRp4Raj8Io9w-182" style="edgeStyle=orthogonalEdgeStyle;rounded=0;orthogonalLoop=1;jettySize=auto;html=1;exitX=0.5;exitY=1;exitDx=0;exitDy=0;entryX=0.5;entryY=0;entryDx=0;entryDy=0;fillColor=#008a00;strokeColor=#005700;strokeWidth=3;" edge="1" parent="1" source="EssWX9nocRp4Raj8Io9w-180" target="EssWX9nocRp4Raj8Io9w-60">
          <mxGeometry relative="1" as="geometry" />
        </mxCell>
        <mxCell id="EssWX9nocRp4Raj8Io9w-183" value="Success to Converting Input" style="edgeLabel;html=1;align=center;verticalAlign=middle;resizable=0;points=[];fontColor=#FFFFFF;labelBackgroundColor=#000000;" vertex="1" connectable="0" parent="EssWX9nocRp4Raj8Io9w-182">
          <mxGeometry x="-0.2149" relative="1" as="geometry">
            <mxPoint as="offset" />
          </mxGeometry>
        </mxCell>
        <mxCell id="EssWX9nocRp4Raj8Io9w-184" style="edgeStyle=orthogonalEdgeStyle;rounded=0;orthogonalLoop=1;jettySize=auto;html=1;exitX=0;exitY=0.5;exitDx=0;exitDy=0;entryX=0;entryY=0.5;entryDx=0;entryDy=0;strokeColor=#FF0000;strokeWidth=3;" edge="1" parent="1" source="EssWX9nocRp4Raj8Io9w-180" target="EssWX9nocRp4Raj8Io9w-57">
          <mxGeometry relative="1" as="geometry" />
        </mxCell>
        <mxCell id="EssWX9nocRp4Raj8Io9w-185" value="&lt;span style=&quot;color: rgb(255, 255, 255); background-color: rgb(0, 0, 0);&quot;&gt;Failed to Converting Input&lt;/span&gt;" style="edgeLabel;html=1;align=center;verticalAlign=middle;resizable=0;points=[];" vertex="1" connectable="0" parent="EssWX9nocRp4Raj8Io9w-184">
          <mxGeometry x="-0.1316" y="2" relative="1" as="geometry">
            <mxPoint y="1" as="offset" />
          </mxGeometry>
        </mxCell>
        <mxCell id="EssWX9nocRp4Raj8Io9w-180" value="Convert Input&lt;div&gt;to Datetime&lt;/div&gt;" style="html=1;overflow=block;blockSpacing=1;whiteSpace=wrap;rhombus;fontSize=16.7;fontColor=#ffffff;spacing=3.8;strokeColor=#006EAF;rounded=1;absoluteArcSize=1;arcSize=9;fillColor=#1ba1e2;strokeWidth=NaN;lucidId=x_avSaIK2IV_;" vertex="1" parent="1">
          <mxGeometry x="-309.6" y="999" width="162.2" height="122" as="geometry" />
        </mxCell>
        <mxCell id="EssWX9nocRp4Raj8Io9w-186" value="" style="html=1;overflow=block;blockSpacing=1;whiteSpace=wrap;fontSize=16.7;spacing=9;strokeColor=none;rounded=1;absoluteArcSize=1;arcSize=9;fillColor=none;strokeWidth=NaN;lucidId=39wLnJ_wp2-h;fontColor=#ffffff;" vertex="1" parent="1">
          <mxGeometry x="362.5" width="132" height="30" as="geometry" />
        </mxCell>
      </root>
    </mxGraphModel>
  </diagram>
</mxfile>
